<svg id="图层_1" data-name="图层 1" xmlns="http://www.w3.org/2000/svg" xmlns:xlink="http://www.w3.org/1999/xlink" viewBox="0 0 52 52"><defs><style>.cls-1{fill:url(#未命名的渐变_11);}.cls-2{fill:url(#未命名的渐变_11-2);}</style><linearGradient id="未命名的渐变_11" x1="32.39" y1="12.39" x2="19.61" y2="-0.39" gradientUnits="userSpaceOnUse"><stop offset="0" stop-color="#4885ff"/><stop offset="1" stop-color="#86b4fc"/></linearGradient><linearGradient id="未命名的渐变_11-2" x1="45.83" y1="46.82" x2="6.18" y2="7.18" xlink:href="#未命名的渐变_11"/></defs><title>图标</title><rect class="cls-1" x="15" y="3" width="22" height="6" rx="2.07"/><path class="cls-2" d="M42,5H38V7.21A2.79,2.79,0,0,1,35.21,10H16.79A2.79,2.79,0,0,1,14,7.21V5H10A4,4,0,0,0,6,9V45a4,4,0,0,0,4,4H42a4,4,0,0,0,4-4V9A4,4,0,0,0,42,5ZM32.5,30.27h-5v5a1.5,1.5,0,0,1-3,0v-5h-5a1.5,1.5,0,0,1,0-3h5v-5a1.5,1.5,0,1,1,3,0v5h5a1.5,1.5,0,0,1,0,3Z"/></svg>