<svg id="图层_1" data-name="图层 1" xmlns="http://www.w3.org/2000/svg" xmlns:xlink="http://www.w3.org/1999/xlink" viewBox="0 0 52 52"><defs><style>.cls-1{fill:url(#未命名的渐变_28);}.cls-2{fill:url(#未命名的渐变_28-2);}</style><linearGradient id="未命名的渐变_28" x1="33.03" y1="12.39" x2="20.25" y2="-0.39" gradientUnits="userSpaceOnUse"><stop offset="0" stop-color="#b1b2b7"/><stop offset="1" stop-color="#f2f3f7"/></linearGradient><linearGradient id="未命名的渐变_28-2" x1="46.47" y1="46.82" x2="6.82" y2="7.18" xlink:href="#未命名的渐变_28"/></defs><title>图标</title><rect class="cls-1" x="15.64" y="3" width="22" height="6" rx="2.07"/><path class="cls-2" d="M42.64,5h-4V7.21A2.79,2.79,0,0,1,35.85,10H17.43a2.8,2.8,0,0,1-2.79-2.79V5h-4a4,4,0,0,0-4,4V45a4,4,0,0,0,4,4h32a4,4,0,0,0,4-4V9A4,4,0,0,0,42.64,5Zm-9.5,25.27h-5v5a1.5,1.5,0,0,1-3,0v-5h-5a1.5,1.5,0,0,1,0-3h5v-5a1.5,1.5,0,1,1,3,0v5h5a1.5,1.5,0,0,1,0,3Z"/></svg>