<svg id="图层_1" data-name="图层 1" xmlns="http://www.w3.org/2000/svg" xmlns:xlink="http://www.w3.org/1999/xlink" viewBox="0 0 52 52"><defs><style>.cls-1{fill:url(#未命名的渐变_37);}.cls-2{fill:url(#未命名的渐变_37-2);}.cls-3{clip-path:url(#clip-path);}.cls-4{fill:url(#未命名的渐变_37-4);}.cls-5{fill:url(#未命名的渐变_37-5);}.cls-6{fill:url(#未命名的渐变_37-6);}.cls-7{fill:url(#未命名的渐变_37-7);}.cls-8{fill:url(#未命名的渐变_37-8);}.cls-9{fill:url(#未命名的渐变_37-9);}.cls-10{fill:url(#未命名的渐变_37-10);}.cls-11{fill:url(#未命名的渐变_37-11);}.cls-12{fill:url(#未命名的渐变_37-12);}.cls-13{fill:url(#未命名的渐变_37-13);}.cls-14{fill:url(#未命名的渐变_37-14);}.cls-15{fill:url(#未命名的渐变_37-15);}.cls-16{fill:url(#未命名的渐变_37-16);}.cls-17{fill:url(#未命名的渐变_37-17);}.cls-18{fill:url(#未命名的渐变_37-18);}.cls-19{fill:url(#未命名的渐变_37-19);}.cls-20{fill:url(#未命名的渐变_37-20);}.cls-21{fill:url(#未命名的渐变_37-21);}.cls-22{fill:url(#未命名的渐变_37-22);}.cls-23{fill:url(#未命名的渐变_37-23);}.cls-24{fill:url(#未命名的渐变_37-24);}.cls-25{fill:url(#未命名的渐变_37-25);}.cls-26{fill:url(#未命名的渐变_37-26);}.cls-27{fill:url(#未命名的渐变_37-27);}.cls-28{fill:url(#未命名的渐变_37-28);}.cls-29{fill:url(#未命名的渐变_37-29);}.cls-30{fill:url(#未命名的渐变_37-30);}.cls-31{fill:url(#未命名的渐变_37-31);}.cls-32{fill:url(#未命名的渐变_37-32);}.cls-33{fill:url(#未命名的渐变_37-33);}.cls-34{fill:url(#未命名的渐变_37-34);}.cls-35{fill:url(#未命名的渐变_37-35);}.cls-36{fill:url(#未命名的渐变_37-36);}.cls-37{fill:url(#未命名的渐变_37-37);}.cls-38{fill:url(#未命名的渐变_37-38);}.cls-39{fill:url(#未命名的渐变_37-39);}.cls-40{fill:url(#未命名的渐变_37-40);}.cls-41{fill:url(#未命名的渐变_37-41);}.cls-42{fill:url(#未命名的渐变_37-42);}.cls-43{fill:url(#未命名的渐变_37-43);}.cls-44{fill:url(#未命名的渐变_37-44);}.cls-45{fill:url(#未命名的渐变_37-45);}.cls-46{fill:url(#未命名的渐变_37-46);}.cls-47{fill:url(#未命名的渐变_37-47);}.cls-48{fill:url(#未命名的渐变_37-48);}.cls-49{fill:url(#未命名的渐变_37-49);}.cls-50{fill:url(#未命名的渐变_37-50);}.cls-51{fill:url(#未命名的渐变_37-51);}.cls-52{fill:url(#未命名的渐变_37-52);}.cls-53{fill:url(#未命名的渐变_37-53);}.cls-54{fill:url(#未命名的渐变_37-54);}.cls-55{fill:url(#未命名的渐变_37-55);}.cls-56{fill:url(#未命名的渐变_37-56);}.cls-57{fill:url(#未命名的渐变_37-57);}.cls-58{fill:url(#未命名的渐变_37-58);}.cls-59{fill:url(#未命名的渐变_37-59);}.cls-60{fill:url(#未命名的渐变_37-60);}.cls-61{fill:url(#未命名的渐变_37-61);}.cls-62{fill:url(#未命名的渐变_37-62);}.cls-63{fill:url(#未命名的渐变_37-63);}.cls-64{fill:url(#未命名的渐变_37-64);}.cls-65{fill:url(#未命名的渐变_37-65);}.cls-66{fill:url(#未命名的渐变_37-66);}.cls-67{fill:url(#未命名的渐变_37-67);}.cls-68{fill:url(#未命名的渐变_37-68);}.cls-69{fill:url(#未命名的渐变_37-69);}.cls-70{fill:url(#未命名的渐变_37-70);}.cls-71{clip-path:url(#clip-path-2);}.cls-72{fill:url(#未命名的渐变_37-72);}.cls-73{fill:url(#未命名的渐变_37-73);}.cls-74{fill:url(#未命名的渐变_37-74);}.cls-75{fill:url(#未命名的渐变_37-75);}.cls-76{fill:url(#未命名的渐变_37-76);}.cls-77{fill:url(#未命名的渐变_37-77);}.cls-78{fill:url(#未命名的渐变_37-78);}.cls-79{fill:url(#未命名的渐变_37-79);}.cls-80{fill:url(#未命名的渐变_37-80);}.cls-81{fill:url(#未命名的渐变_37-81);}.cls-82{fill:url(#未命名的渐变_37-82);}.cls-83{fill:url(#未命名的渐变_37-83);}.cls-84{fill:url(#未命名的渐变_37-84);}.cls-85{fill:url(#未命名的渐变_37-85);}.cls-86{fill:url(#未命名的渐变_37-86);}.cls-87{fill:url(#未命名的渐变_37-87);}.cls-88{fill:url(#未命名的渐变_37-88);}.cls-89{fill:url(#未命名的渐变_37-89);}.cls-90{fill:url(#未命名的渐变_37-90);}.cls-91{fill:url(#未命名的渐变_37-91);}.cls-92{fill:url(#未命名的渐变_37-92);}.cls-93{fill:url(#未命名的渐变_37-93);}.cls-94{fill:url(#未命名的渐变_37-94);}.cls-95{fill:url(#未命名的渐变_37-95);}.cls-96{fill:url(#未命名的渐变_37-96);}.cls-97{fill:url(#未命名的渐变_37-97);}.cls-98{fill:url(#未命名的渐变_37-98);}.cls-99{fill:url(#未命名的渐变_37-99);}.cls-100{fill:url(#未命名的渐变_37-100);}.cls-101{fill:url(#未命名的渐变_37-101);}.cls-102{fill:url(#未命名的渐变_37-102);}.cls-103{fill:url(#未命名的渐变_37-103);}.cls-104{fill:url(#未命名的渐变_37-104);}.cls-105{fill:url(#未命名的渐变_37-105);}.cls-106{fill:url(#未命名的渐变_37-106);}.cls-107{fill:url(#未命名的渐变_37-107);}.cls-108{fill:url(#未命名的渐变_37-108);}.cls-109{fill:url(#未命名的渐变_37-109);}.cls-110{fill:url(#未命名的渐变_37-110);}.cls-111{fill:url(#未命名的渐变_37-111);}.cls-112{fill:url(#未命名的渐变_37-112);}.cls-113{fill:url(#未命名的渐变_37-113);}.cls-114{fill:url(#未命名的渐变_37-114);}.cls-115{fill:url(#未命名的渐变_37-115);}.cls-116{fill:url(#未命名的渐变_37-116);}.cls-117{fill:url(#未命名的渐变_37-117);}.cls-118{fill:url(#未命名的渐变_37-118);}.cls-119{fill:url(#未命名的渐变_37-119);}.cls-120{fill:url(#未命名的渐变_37-120);}.cls-121{fill:url(#未命名的渐变_37-121);}.cls-122{fill:url(#未命名的渐变_37-122);}.cls-123{fill:url(#未命名的渐变_37-123);}.cls-124{fill:url(#未命名的渐变_37-124);}.cls-125{fill:url(#未命名的渐变_37-125);}.cls-126{fill:url(#未命名的渐变_37-126);}.cls-127{fill:url(#未命名的渐变_37-127);}.cls-128{fill:url(#未命名的渐变_37-128);}.cls-129{fill:url(#未命名的渐变_37-129);}.cls-130{fill:url(#未命名的渐变_37-130);}.cls-131{fill:url(#未命名的渐变_37-131);}.cls-132{fill:url(#未命名的渐变_37-132);}.cls-133{fill:url(#未命名的渐变_37-133);}.cls-134{fill:url(#未命名的渐变_37-134);}.cls-135{fill:url(#未命名的渐变_37-135);}.cls-136{fill:url(#未命名的渐变_37-136);}.cls-137{fill:url(#未命名的渐变_37-137);}.cls-138{fill:url(#未命名的渐变_37-138);}.cls-139{fill:url(#未命名的渐变_37-139);}.cls-140{fill:url(#未命名的渐变_37-140);}.cls-141{fill:url(#未命名的渐变_37-141);}.cls-142{fill:url(#未命名的渐变_37-142);}.cls-143{fill:url(#未命名的渐变_37-143);}.cls-144{fill:url(#未命名的渐变_37-144);}.cls-145{fill:url(#未命名的渐变_37-145);}.cls-146{fill:url(#未命名的渐变_37-146);}.cls-147{fill:url(#未命名的渐变_37-147);}.cls-148{fill:url(#未命名的渐变_37-148);}.cls-149{fill:url(#未命名的渐变_37-149);}.cls-150{fill:url(#未命名的渐变_37-150);}.cls-151{fill:url(#未命名的渐变_37-151);}.cls-152{fill:url(#未命名的渐变_37-152);}.cls-153{fill:url(#未命名的渐变_37-153);}.cls-154{fill:url(#未命名的渐变_37-154);}.cls-155{fill:url(#未命名的渐变_37-155);}</style><linearGradient id="未命名的渐变_37" x1="30.84" y1="17.3" x2="20.94" y2="7.4" gradientUnits="userSpaceOnUse"><stop offset="0" stop-color="#f2f3f7"/><stop offset="1" stop-color="#b1b2b7"/></linearGradient><linearGradient id="未命名的渐变_37-2" x1="38.31" y1="47.34" x2="14.26" y2="23.29" xlink:href="#未命名的渐变_37"/><clipPath id="clip-path"><circle class="cls-1" cx="25.89" cy="12.35" r="7"/></clipPath><linearGradient id="未命名的渐变_37-4" x1="33.3" y1="18.93" x2="30.82" y2="16.45" xlink:href="#未命名的渐变_37"/><linearGradient id="未命名的渐变_37-5" x1="31.68" y1="17.25" x2="30.66" y2="16.23" xlink:href="#未命名的渐变_37"/><linearGradient id="未命名的渐变_37-6" x1="31.59" y1="17.09" x2="30.5" y2="16" xlink:href="#未命名的渐变_37"/><linearGradient id="未命名的渐变_37-7" x1="31.49" y1="16.92" x2="30.34" y2="15.77" xlink:href="#未命名的渐变_37"/><linearGradient id="未命名的渐变_37-8" x1="31.39" y1="16.76" x2="30.18" y2="15.55" xlink:href="#未命名的渐变_37"/><linearGradient id="未命名的渐变_37-9" x1="31.29" y1="16.6" x2="30.01" y2="15.32" xlink:href="#未命名的渐变_37"/><linearGradient id="未命名的渐变_37-10" x1="31.2" y1="16.44" x2="29.85" y2="15.09" xlink:href="#未命名的渐变_37"/><linearGradient id="未命名的渐变_37-11" x1="31.1" y1="16.28" x2="29.69" y2="14.87" xlink:href="#未命名的渐变_37"/><linearGradient id="未命名的渐变_37-12" x1="31" y1="16.11" x2="29.53" y2="14.64" xlink:href="#未命名的渐变_37"/><linearGradient id="未命名的渐变_37-13" x1="30.91" y1="15.95" x2="29.37" y2="14.41" xlink:href="#未命名的渐变_37"/><linearGradient id="未命名的渐变_37-14" x1="30.81" y1="15.79" x2="29.21" y2="14.19" xlink:href="#未命名的渐变_37"/><linearGradient id="未命名的渐变_37-15" x1="30.71" y1="15.63" x2="29.04" y2="13.96" xlink:href="#未命名的渐变_37"/><linearGradient id="未命名的渐变_37-16" x1="30.61" y1="15.47" x2="28.88" y2="13.74" xlink:href="#未命名的渐变_37"/><linearGradient id="未命名的渐变_37-17" x1="30.52" y1="15.31" x2="28.72" y2="13.51" xlink:href="#未命名的渐变_37"/><linearGradient id="未命名的渐变_37-18" x1="30.42" y1="15.14" x2="28.56" y2="13.28" xlink:href="#未命名的渐变_37"/><linearGradient id="未命名的渐变_37-19" x1="30.32" y1="14.98" x2="28.4" y2="13.06" xlink:href="#未命名的渐变_37"/><linearGradient id="未命名的渐变_37-20" x1="30.23" y1="14.82" x2="28.23" y2="12.83" xlink:href="#未命名的渐变_37"/><linearGradient id="未命名的渐变_37-21" x1="30.13" y1="14.66" x2="28.07" y2="12.6" xlink:href="#未命名的渐变_37"/><linearGradient id="未命名的渐变_37-22" x1="30.03" y1="14.5" x2="27.91" y2="12.38" xlink:href="#未命名的渐变_37"/><linearGradient id="未命名的渐变_37-23" x1="29.93" y1="14.34" x2="27.75" y2="12.15" xlink:href="#未命名的渐变_37"/><linearGradient id="未命名的渐变_37-24" x1="29.84" y1="14.17" x2="27.59" y2="11.92" xlink:href="#未命名的渐变_37"/><linearGradient id="未命名的渐变_37-25" x1="29.74" y1="14.01" x2="27.43" y2="11.7" xlink:href="#未命名的渐变_37"/><linearGradient id="未命名的渐变_37-26" x1="29.64" y1="13.85" x2="27.26" y2="11.47" xlink:href="#未命名的渐变_37"/><linearGradient id="未命名的渐变_37-27" x1="29.55" y1="13.69" x2="27.1" y2="11.24" xlink:href="#未命名的渐变_37"/><linearGradient id="未命名的渐变_37-28" x1="29.38" y1="13.6" x2="26.92" y2="11.13" xlink:href="#未命名的渐变_37"/><linearGradient id="未命名的渐变_37-29" x1="29.14" y1="13.58" x2="26.68" y2="11.12" xlink:href="#未命名的渐变_37"/><linearGradient id="未命名的渐变_37-30" x1="28.88" y1="13.58" x2="26.42" y2="11.12" xlink:href="#未命名的渐变_37"/><linearGradient id="未命名的渐变_37-31" x1="28.62" y1="13.58" x2="26.16" y2="11.12" xlink:href="#未命名的渐变_37"/><linearGradient id="未命名的渐变_37-32" x1="28.36" y1="13.58" x2="25.9" y2="11.12" xlink:href="#未命名的渐变_37"/><linearGradient id="未命名的渐变_37-33" x1="28.1" y1="13.58" x2="25.64" y2="11.12" xlink:href="#未命名的渐变_37"/><linearGradient id="未命名的渐变_37-34" x1="27.84" y1="13.58" x2="25.38" y2="11.12" xlink:href="#未命名的渐变_37"/><linearGradient id="未命名的渐变_37-35" x1="27.58" y1="13.58" x2="25.12" y2="11.12" xlink:href="#未命名的渐变_37"/><linearGradient id="未命名的渐变_37-36" x1="27.32" y1="13.58" x2="24.86" y2="11.12" xlink:href="#未命名的渐变_37"/><linearGradient id="未命名的渐变_37-37" x1="27.07" y1="13.58" x2="24.6" y2="11.12" xlink:href="#未命名的渐变_37"/><linearGradient id="未命名的渐变_37-38" x1="26.81" y1="13.58" x2="24.35" y2="11.12" xlink:href="#未命名的渐变_37"/><linearGradient id="未命名的渐变_37-39" x1="26.55" y1="13.58" x2="24.09" y2="11.12" xlink:href="#未命名的渐变_37"/><linearGradient id="未命名的渐变_37-40" x1="26.29" y1="13.58" x2="23.83" y2="11.12" xlink:href="#未命名的渐变_37"/><linearGradient id="未命名的渐变_37-41" x1="26.03" y1="13.58" x2="23.57" y2="11.12" xlink:href="#未命名的渐变_37"/><linearGradient id="未命名的渐变_37-42" x1="25.77" y1="13.58" x2="23.31" y2="11.12" xlink:href="#未命名的渐变_37"/><linearGradient id="未命名的渐变_37-43" x1="25.51" y1="13.58" x2="23.05" y2="11.12" xlink:href="#未命名的渐变_37"/><linearGradient id="未命名的渐变_37-44" x1="25.25" y1="13.58" x2="22.79" y2="11.12" xlink:href="#未命名的渐变_37"/><linearGradient id="未命名的渐变_37-45" x1="24.99" y1="13.58" x2="22.53" y2="11.12" xlink:href="#未命名的渐变_37"/><linearGradient id="未命名的渐变_37-46" x1="24.78" y1="13.53" x2="22.32" y2="11.07" xlink:href="#未命名的渐变_37"/><linearGradient id="未命名的渐变_37-47" x1="24.61" y1="13.35" x2="22.19" y2="10.94" xlink:href="#未命名的渐变_37"/><linearGradient id="未命名的渐变_37-48" x1="24.45" y1="13.13" x2="22.1" y2="10.78" xlink:href="#未命名的渐变_37"/><linearGradient id="未命名的渐变_37-49" x1="24.29" y1="12.9" x2="22" y2="10.61" xlink:href="#未命名的渐变_37"/><linearGradient id="未命名的渐变_37-50" x1="24.13" y1="12.67" x2="21.9" y2="10.45" xlink:href="#未命名的渐变_37"/><linearGradient id="未命名的渐变_37-51" x1="23.96" y1="12.45" x2="21.81" y2="10.29" xlink:href="#未命名的渐变_37"/><linearGradient id="未命名的渐变_37-52" x1="23.8" y1="12.22" x2="21.71" y2="10.13" xlink:href="#未命名的渐变_37"/><linearGradient id="未命名的渐变_37-53" x1="23.64" y1="11.99" x2="21.61" y2="9.97" xlink:href="#未命名的渐变_37"/><linearGradient id="未命名的渐变_37-54" x1="23.48" y1="11.77" x2="21.51" y2="9.81" xlink:href="#未命名的渐变_37"/><linearGradient id="未命名的渐变_37-55" x1="23.32" y1="11.54" x2="21.42" y2="9.64" xlink:href="#未命名的渐变_37"/><linearGradient id="未命名的渐变_37-56" x1="23.15" y1="11.32" x2="21.32" y2="9.48" xlink:href="#未命名的渐变_37"/><linearGradient id="未命名的渐变_37-57" x1="22.99" y1="11.09" x2="21.22" y2="9.32" xlink:href="#未命名的渐变_37"/><linearGradient id="未命名的渐变_37-58" x1="22.83" y1="10.86" x2="21.13" y2="9.16" xlink:href="#未命名的渐变_37"/><linearGradient id="未命名的渐变_37-59" x1="22.67" y1="10.64" x2="21.03" y2="9" xlink:href="#未命名的渐变_37"/><linearGradient id="未命名的渐变_37-60" x1="22.51" y1="10.41" x2="20.93" y2="8.83" xlink:href="#未命名的渐变_37"/><linearGradient id="未命名的渐变_37-61" x1="22.35" y1="10.18" x2="20.84" y2="8.67" xlink:href="#未命名的渐变_37"/><linearGradient id="未命名的渐变_37-62" x1="22.18" y1="9.96" x2="20.74" y2="8.51" xlink:href="#未命名的渐变_37"/><linearGradient id="未命名的渐变_37-63" x1="22.02" y1="9.73" x2="20.64" y2="8.35" xlink:href="#未命名的渐变_37"/><linearGradient id="未命名的渐变_37-64" x1="21.86" y1="9.5" x2="20.54" y2="8.19" xlink:href="#未命名的渐变_37"/><linearGradient id="未命名的渐变_37-65" x1="21.7" y1="9.28" x2="20.45" y2="8.03" xlink:href="#未命名的渐变_37"/><linearGradient id="未命名的渐变_37-66" x1="21.54" y1="9.05" x2="20.35" y2="7.86" xlink:href="#未命名的渐变_37"/><linearGradient id="未命名的渐变_37-67" x1="21.37" y1="8.82" x2="20.25" y2="7.7" xlink:href="#未命名的渐变_37"/><linearGradient id="未命名的渐变_37-68" x1="21.21" y1="8.6" x2="20.16" y2="7.54" xlink:href="#未命名的渐变_37"/><linearGradient id="未命名的渐变_37-69" x1="21.05" y1="8.37" x2="20.06" y2="7.38" xlink:href="#未命名的渐变_37"/><linearGradient id="未命名的渐变_37-70" x1="20.89" y1="8.14" x2="18.49" y2="5.75" xlink:href="#未命名的渐变_37"/><clipPath id="clip-path-2"><path class="cls-2" d="M29.8,20.76h-7A14.53,14.53,0,0,0,8.28,35.24v2a10,10,0,0,0,10,10h16a10,10,0,0,0,10-10v-2A14.52,14.52,0,0,0,29.8,20.76Zm6,11.9H30a1.5,1.5,0,0,1,0-3H35.8a1.5,1.5,0,0,1,0,3Z"/></clipPath><linearGradient id="未命名的渐变_37-72" x1="37.36" y1="32.61" x2="37.02" y2="32.27" xlink:href="#未命名的渐变_37"/><linearGradient id="未命名的渐变_37-73" x1="37.21" y1="32.3" x2="36.61" y2="31.7" xlink:href="#未命名的渐变_37"/><linearGradient id="未命名的渐变_37-74" x1="36.97" y1="31.89" x2="36.21" y2="31.13" xlink:href="#未命名的渐变_37"/><linearGradient id="未命名的渐变_37-75" x1="36.58" y1="31.64" x2="35.75" y2="30.81" xlink:href="#未命名的渐变_37"/><linearGradient id="未命名的渐变_37-76" x1="35.99" y1="31.58" x2="35.16" y2="30.75" xlink:href="#未命名的渐变_37"/><linearGradient id="未命名的渐变_37-77" x1="35.34" y1="31.58" x2="34.51" y2="30.75" xlink:href="#未命名的渐变_37"/><linearGradient id="未命名的渐变_37-78" x1="34.69" y1="31.58" x2="33.86" y2="30.75" xlink:href="#未命名的渐变_37"/><linearGradient id="未命名的渐变_37-79" x1="34.04" y1="31.58" x2="33.21" y2="30.75" xlink:href="#未命名的渐变_37"/><linearGradient id="未命名的渐变_37-80" x1="33.39" y1="31.58" x2="32.56" y2="30.75" xlink:href="#未命名的渐变_37"/><linearGradient id="未命名的渐变_37-81" x1="32.74" y1="31.58" x2="31.91" y2="30.75" xlink:href="#未命名的渐变_37"/><linearGradient id="未命名的渐变_37-82" x1="32.09" y1="31.58" x2="31.26" y2="30.75" xlink:href="#未命名的渐变_37"/><linearGradient id="未命名的渐变_37-83" x1="31.44" y1="31.58" x2="30.61" y2="30.75" xlink:href="#未命名的渐变_37"/><linearGradient id="未命名的渐变_37-84" x1="30.79" y1="31.58" x2="29.96" y2="30.75" xlink:href="#未命名的渐变_37"/><linearGradient id="未命名的渐变_37-85" x1="30.16" y1="31.56" x2="29.33" y2="30.73" xlink:href="#未命名的渐变_37"/><linearGradient id="未命名的渐变_37-86" x1="29.68" y1="31.34" x2="28.88" y2="30.54" xlink:href="#未命名的渐变_37"/><linearGradient id="未命名的渐变_37-87" x1="29.27" y1="30.78" x2="28.63" y2="30.13" xlink:href="#未命名的渐变_37"/><linearGradient id="未命名的渐变_37-88" x1="28.87" y1="30.21" x2="28.4" y2="29.74" xlink:href="#未命名的渐变_37"/><linearGradient id="未命名的渐变_37-89" x1="44.88" y1="46.64" x2="41.28" y2="43.04" xlink:href="#未命名的渐变_37"/><linearGradient id="未命名的渐变_37-90" x1="42.56" y1="44.16" x2="40.88" y2="42.47" xlink:href="#未命名的渐变_37"/><linearGradient id="未命名的渐变_37-91" x1="42.32" y1="43.75" x2="40.47" y2="41.9" xlink:href="#未命名的渐变_37"/><linearGradient id="未命名的渐变_37-92" x1="42.08" y1="43.35" x2="40.06" y2="41.33" xlink:href="#未命名的渐变_37"/><linearGradient id="未命名的渐变_37-93" x1="41.83" y1="42.94" x2="39.66" y2="40.77" xlink:href="#未命名的渐变_37"/><linearGradient id="未命名的渐变_37-94" x1="41.59" y1="42.53" x2="39.25" y2="40.2" xlink:href="#未命名的渐变_37"/><linearGradient id="未命名的渐变_37-95" x1="41.34" y1="42.13" x2="38.85" y2="39.63" xlink:href="#未命名的渐变_37"/><linearGradient id="未命名的渐变_37-96" x1="41.1" y1="41.72" x2="38.44" y2="39.06" xlink:href="#未命名的渐变_37"/><linearGradient id="未命名的渐变_37-97" x1="40.86" y1="41.31" x2="38.03" y2="38.49" xlink:href="#未命名的渐变_37"/><linearGradient id="未命名的渐变_37-98" x1="40.61" y1="40.91" x2="37.63" y2="37.92" xlink:href="#未命名的渐变_37"/><linearGradient id="未命名的渐变_37-99" x1="40.37" y1="40.5" x2="37.22" y2="37.35" xlink:href="#未命名的渐变_37"/><linearGradient id="未命名的渐变_37-100" x1="40.12" y1="40.1" x2="36.81" y2="36.79" xlink:href="#未命名的渐变_37"/><linearGradient id="未命名的渐变_37-101" x1="39.88" y1="39.69" x2="36.41" y2="36.22" xlink:href="#未命名的渐变_37"/><linearGradient id="未命名的渐变_37-102" x1="39.64" y1="39.28" x2="36" y2="35.65" xlink:href="#未命名的渐变_37"/><linearGradient id="未命名的渐变_37-103" x1="39.39" y1="38.88" x2="35.6" y2="35.08" xlink:href="#未命名的渐变_37"/><linearGradient id="未命名的渐变_37-104" x1="39.15" y1="38.47" x2="35.19" y2="34.51" xlink:href="#未命名的渐变_37"/><linearGradient id="未命名的渐变_37-105" x1="38.91" y1="38.07" x2="34.78" y2="33.94" xlink:href="#未命名的渐变_37"/><linearGradient id="未命名的渐变_37-106" x1="38.66" y1="37.66" x2="34.38" y2="33.37" xlink:href="#未命名的渐变_37"/><linearGradient id="未命名的渐变_37-107" x1="38.37" y1="37.3" x2="33.94" y2="32.88" xlink:href="#未命名的渐变_37"/><linearGradient id="未命名的渐变_37-108" x1="37.87" y1="37.15" x2="33.4" y2="32.68" xlink:href="#未命名的渐变_37"/><linearGradient id="未命名的渐变_37-109" x1="37.35" y1="37.03" x2="32.82" y2="32.5" xlink:href="#未命名的渐变_37"/><linearGradient id="未命名的渐变_37-110" x1="36.82" y1="36.9" x2="32.25" y2="32.33" xlink:href="#未命名的渐变_37"/><linearGradient id="未命名的渐变_37-111" x1="36.3" y1="36.77" x2="31.67" y2="32.15" xlink:href="#未命名的渐变_37"/><linearGradient id="未命名的渐变_37-112" x1="35.77" y1="36.65" x2="31.1" y2="31.98" xlink:href="#未命名的渐变_37"/><linearGradient id="未命名的渐变_37-113" x1="35.25" y1="36.52" x2="30.52" y2="31.8" xlink:href="#未命名的渐变_37"/><linearGradient id="未命名的渐变_37-114" x1="34.72" y1="36.4" x2="29.99" y2="31.66" xlink:href="#未命名的渐变_37"/><linearGradient id="未命名的渐变_37-115" x1="34.1" y1="36.37" x2="29.37" y2="31.63" xlink:href="#未命名的渐变_37"/><linearGradient id="未命名的渐变_37-116" x1="33.45" y1="36.37" x2="28.72" y2="31.63" xlink:href="#未命名的渐变_37"/><linearGradient id="未命名的渐变_37-117" x1="32.8" y1="36.37" x2="28.07" y2="31.63" xlink:href="#未命名的渐变_37"/><linearGradient id="未命名的渐变_37-118" x1="32.15" y1="36.37" x2="27.42" y2="31.63" xlink:href="#未命名的渐变_37"/><linearGradient id="未命名的渐变_37-119" x1="31.5" y1="36.37" x2="26.77" y2="31.63" xlink:href="#未命名的渐变_37"/><linearGradient id="未命名的渐变_37-120" x1="30.85" y1="36.37" x2="26.12" y2="31.63" xlink:href="#未命名的渐变_37"/><linearGradient id="未命名的渐变_37-121" x1="30.2" y1="36.37" x2="25.47" y2="31.63" xlink:href="#未命名的渐变_37"/><linearGradient id="未命名的渐变_37-122" x1="29.55" y1="36.37" x2="24.82" y2="31.63" xlink:href="#未命名的渐变_37"/><linearGradient id="未命名的渐变_37-123" x1="28.9" y1="36.37" x2="24.17" y2="31.63" xlink:href="#未命名的渐变_37"/><linearGradient id="未命名的渐变_37-124" x1="28.25" y1="36.37" x2="23.52" y2="31.63" xlink:href="#未命名的渐变_37"/><linearGradient id="未命名的渐变_37-125" x1="27.6" y1="36.37" x2="22.87" y2="31.63" xlink:href="#未命名的渐变_37"/><linearGradient id="未命名的渐变_37-126" x1="26.95" y1="36.37" x2="22.22" y2="31.63" xlink:href="#未命名的渐变_37"/><linearGradient id="未命名的渐变_37-127" x1="26.3" y1="36.37" x2="21.57" y2="31.63" xlink:href="#未命名的渐变_37"/><linearGradient id="未命名的渐变_37-128" x1="25.65" y1="36.37" x2="20.92" y2="31.63" xlink:href="#未命名的渐变_37"/><linearGradient id="未命名的渐变_37-129" x1="25" y1="36.37" x2="20.27" y2="31.63" xlink:href="#未命名的渐变_37"/><linearGradient id="未命名的渐变_37-130" x1="24.35" y1="36.37" x2="19.62" y2="31.63" xlink:href="#未命名的渐变_37"/><linearGradient id="未命名的渐变_37-131" x1="23.7" y1="36.37" x2="18.97" y2="31.63" xlink:href="#未命名的渐变_37"/><linearGradient id="未命名的渐变_37-132" x1="23.05" y1="36.37" x2="18.32" y2="31.63" xlink:href="#未命名的渐变_37"/><linearGradient id="未命名的渐变_37-133" x1="22.4" y1="36.37" x2="17.67" y2="31.63" xlink:href="#未命名的渐变_37"/><linearGradient id="未命名的渐变_37-134" x1="21.75" y1="36.37" x2="17.02" y2="31.63" xlink:href="#未命名的渐变_37"/><linearGradient id="未命名的渐变_37-135" x1="21.1" y1="36.37" x2="16.37" y2="31.63" xlink:href="#未命名的渐变_37"/><linearGradient id="未命名的渐变_37-136" x1="20.5" y1="36.32" x2="15.76" y2="31.58" xlink:href="#未命名的渐变_37"/><linearGradient id="未命名的渐变_37-137" x1="19.96" y1="36.18" x2="15.24" y2="31.46" xlink:href="#未命名的渐变_37"/><linearGradient id="未命名的渐变_37-138" x1="19.4" y1="35.99" x2="14.73" y2="31.32" xlink:href="#未命名的渐变_37"/><linearGradient id="未命名的渐变_37-139" x1="18.91" y1="35.64" x2="14.34" y2="31.06" xlink:href="#未命名的渐变_37"/><linearGradient id="未命名的渐变_37-140" x1="18.5" y1="35.07" x2="14.09" y2="30.66" xlink:href="#未命名的渐变_37"/><linearGradient id="未命名的渐变_37-141" x1="18.1" y1="34.5" x2="13.85" y2="30.25" xlink:href="#未命名的渐变_37"/><linearGradient id="未命名的渐变_37-142" x1="17.69" y1="33.93" x2="13.61" y2="29.84" xlink:href="#未命名的渐变_37"/><linearGradient id="未命名的渐变_37-143" x1="17.29" y1="33.36" x2="13.36" y2="29.44" xlink:href="#未命名的渐变_37"/><linearGradient id="未命名的渐变_37-144" x1="16.88" y1="32.79" x2="13.12" y2="29.03" xlink:href="#未命名的渐变_37"/><linearGradient id="未命名的渐变_37-145" x1="16.47" y1="32.23" x2="12.87" y2="28.63" xlink:href="#未命名的渐变_37"/><linearGradient id="未命名的渐变_37-146" x1="16.07" y1="31.66" x2="12.63" y2="28.22" xlink:href="#未命名的渐变_37"/><linearGradient id="未命名的渐变_37-147" x1="15.66" y1="31.09" x2="12.39" y2="27.81" xlink:href="#未命名的渐变_37"/><linearGradient id="未命名的渐变_37-148" x1="15.25" y1="30.52" x2="12.14" y2="27.41" xlink:href="#未命名的渐变_37"/><linearGradient id="未命名的渐变_37-149" x1="14.85" y1="29.95" x2="11.9" y2="27" xlink:href="#未命名的渐变_37"/><linearGradient id="未命名的渐变_37-150" x1="14.44" y1="29.38" x2="11.65" y2="26.6" xlink:href="#未命名的渐变_37"/><linearGradient id="未命名的渐变_37-151" x1="14.04" y1="28.81" x2="11.41" y2="26.19" xlink:href="#未命名的渐变_37"/><linearGradient id="未命名的渐变_37-152" x1="13.63" y1="28.25" x2="11.17" y2="25.78" xlink:href="#未命名的渐变_37"/><linearGradient id="未命名的渐变_37-153" x1="13.22" y1="27.68" x2="10.92" y2="25.38" xlink:href="#未命名的渐变_37"/><linearGradient id="未命名的渐变_37-154" x1="12.82" y1="27.11" x2="10.68" y2="24.97" xlink:href="#未命名的渐变_37"/><linearGradient id="未命名的渐变_37-155" x1="12.41" y1="26.54" x2="7.46" y2="21.59" xlink:href="#未命名的渐变_37"/></defs><title>图标</title><circle class="cls-1" cx="25.89" cy="12.35" r="7"/><g class="cls-3"><polygon class="cls-4" points="29.58 19.35 32.89 14.38 32.89 19.35 29.58 19.35"/><polygon class="cls-5" points="29.32 19.35 32.89 14 32.89 14.38 29.58 19.35 29.32 19.35"/><polygon class="cls-6" points="29.06 19.35 32.89 13.61 32.89 14 29.32 19.35 29.06 19.35"/><polygon class="cls-7" points="28.8 19.35 32.89 13.22 32.89 13.61 29.06 19.35 28.8 19.35"/><polygon class="cls-8" points="28.55 19.35 32.89 12.83 32.89 13.22 28.8 19.35 28.55 19.35"/><polygon class="cls-9" points="28.29 19.35 32.89 12.44 32.89 12.83 28.55 19.35 28.29 19.35"/><polygon class="cls-10" points="28.03 19.35 32.89 12.05 32.89 12.44 28.29 19.35 28.03 19.35"/><polygon class="cls-11" points="27.77 19.35 32.89 11.67 32.89 12.05 28.03 19.35 27.77 19.35"/><polygon class="cls-12" points="27.51 19.35 32.89 11.28 32.89 11.67 27.77 19.35 27.51 19.35"/><polygon class="cls-13" points="27.25 19.35 32.89 10.89 32.89 11.28 27.51 19.35 27.25 19.35"/><polygon class="cls-14" points="26.99 19.35 32.89 10.5 32.89 10.89 27.25 19.35 26.99 19.35"/><polygon class="cls-15" points="26.73 19.35 32.89 10.11 32.89 10.5 26.99 19.35 26.73 19.35"/><polygon class="cls-16" points="26.48 19.35 32.89 9.73 32.89 10.11 26.73 19.35 26.48 19.35"/><polygon class="cls-17" points="26.22 19.35 32.89 9.34 32.89 9.73 26.48 19.35 26.22 19.35"/><polygon class="cls-18" points="25.96 19.35 32.89 8.95 32.89 9.34 26.22 19.35 25.96 19.35"/><polygon class="cls-19" points="25.7 19.35 32.89 8.56 32.89 8.95 25.96 19.35 25.7 19.35"/><polygon class="cls-20" points="25.44 19.35 32.89 8.17 32.89 8.56 25.7 19.35 25.44 19.35"/><polygon class="cls-21" points="25.18 19.35 32.89 7.78 32.89 8.17 25.44 19.35 25.18 19.35"/><polygon class="cls-22" points="24.92 19.35 32.89 7.4 32.89 7.78 25.18 19.35 24.92 19.35"/><polygon class="cls-23" points="24.66 19.35 32.89 7.01 32.89 7.4 24.92 19.35 24.66 19.35"/><polygon class="cls-24" points="24.4 19.35 32.89 6.62 32.89 7.01 24.66 19.35 24.4 19.35"/><polygon class="cls-25" points="24.14 19.35 32.89 6.23 32.89 6.62 24.4 19.35 24.14 19.35"/><polygon class="cls-26" points="23.89 19.35 32.89 5.84 32.89 6.23 24.14 19.35 23.89 19.35"/><polygon class="cls-27" points="23.63 19.35 32.89 5.46 32.89 5.84 23.89 19.35 23.63 19.35"/><polygon class="cls-28" points="23.37 19.35 32.7 5.35 32.89 5.35 32.89 5.46 23.63 19.35 23.37 19.35"/><polygon class="cls-29" points="23.11 19.35 32.45 5.35 32.7 5.35 23.37 19.35 23.11 19.35"/><polygon class="cls-30" points="22.85 19.35 32.19 5.35 32.45 5.35 23.11 19.35 22.85 19.35"/><polygon class="cls-31" points="22.59 19.35 31.93 5.35 32.19 5.35 22.85 19.35 22.59 19.35"/><polygon class="cls-32" points="22.33 19.35 31.67 5.35 31.93 5.35 22.59 19.35 22.33 19.35"/><polygon class="cls-33" points="22.07 19.35 31.41 5.35 31.67 5.35 22.33 19.35 22.07 19.35"/><polygon class="cls-34" points="21.82 19.35 31.15 5.35 31.41 5.35 22.07 19.35 21.82 19.35"/><polygon class="cls-35" points="21.56 19.35 30.89 5.35 31.15 5.35 21.82 19.35 21.56 19.35"/><polygon class="cls-36" points="21.3 19.35 30.63 5.35 30.89 5.35 21.56 19.35 21.3 19.35"/><polygon class="cls-37" points="21.04 19.35 30.37 5.35 30.63 5.35 21.3 19.35 21.04 19.35"/><polygon class="cls-38" points="20.78 19.35 30.11 5.35 30.37 5.35 21.04 19.35 20.78 19.35"/><polygon class="cls-39" points="20.52 19.35 29.86 5.35 30.11 5.35 20.78 19.35 20.52 19.35"/><polygon class="cls-40" points="20.26 19.35 29.6 5.35 29.86 5.35 20.52 19.35 20.26 19.35"/><polygon class="cls-41" points="20 19.35 29.34 5.35 29.6 5.35 20.26 19.35 20 19.35"/><polygon class="cls-42" points="19.74 19.35 29.08 5.35 29.34 5.35 20 19.35 19.74 19.35"/><polygon class="cls-43" points="19.48 19.35 28.82 5.35 29.08 5.35 19.74 19.35 19.48 19.35"/><polygon class="cls-44" points="19.23 19.35 28.56 5.35 28.82 5.35 19.48 19.35 19.23 19.35"/><polygon class="cls-45" points="18.97 19.35 28.3 5.35 28.56 5.35 19.23 19.35 18.97 19.35"/><polygon class="cls-46" points="18.89 19.07 28.04 5.35 28.3 5.35 18.97 19.35 18.89 19.35 18.89 19.07"/><polygon class="cls-47" points="18.89 18.68 27.79 5.35 28.04 5.35 18.89 19.07 18.89 18.68"/><polygon class="cls-48" points="18.89 18.3 27.53 5.35 27.79 5.35 18.89 18.68 18.89 18.3"/><polygon class="cls-49" points="18.89 17.91 27.27 5.35 27.53 5.35 18.89 18.3 18.89 17.91"/><polygon class="cls-50" points="18.89 17.52 27.01 5.35 27.27 5.35 18.89 17.91 18.89 17.52"/><polygon class="cls-51" points="18.89 17.13 26.75 5.35 27.01 5.35 18.89 17.52 18.89 17.13"/><polygon class="cls-52" points="18.89 16.74 26.49 5.35 26.75 5.35 18.89 17.13 18.89 16.74"/><polygon class="cls-53" points="18.89 16.36 26.23 5.35 26.49 5.35 18.89 16.74 18.89 16.36"/><polygon class="cls-54" points="18.89 15.97 25.97 5.35 26.23 5.35 18.89 16.36 18.89 15.97"/><polygon class="cls-55" points="18.89 15.58 25.71 5.35 25.97 5.35 18.89 15.97 18.89 15.58"/><polygon class="cls-56" points="18.89 15.19 25.45 5.35 25.71 5.35 18.89 15.58 18.89 15.19"/><polygon class="cls-57" points="18.89 14.8 25.2 5.35 25.45 5.35 18.89 15.19 18.89 14.8"/><polygon class="cls-58" points="18.89 14.41 24.94 5.35 25.2 5.35 18.89 14.8 18.89 14.41"/><polygon class="cls-59" points="18.89 14.03 24.68 5.35 24.94 5.35 18.89 14.41 18.89 14.03"/><polygon class="cls-60" points="18.89 13.64 24.42 5.35 24.68 5.35 18.89 14.03 18.89 13.64"/><polygon class="cls-61" points="18.89 13.25 24.16 5.35 24.42 5.35 18.89 13.64 18.89 13.25"/><polygon class="cls-62" points="18.89 12.86 23.9 5.35 24.16 5.35 18.89 13.25 18.89 12.86"/><polygon class="cls-63" points="18.89 12.47 23.64 5.35 23.9 5.35 18.89 12.86 18.89 12.47"/><polygon class="cls-64" points="18.89 12.08 23.38 5.35 23.64 5.35 18.89 12.47 18.89 12.08"/><polygon class="cls-65" points="18.89 11.7 23.12 5.35 23.38 5.35 18.89 12.08 18.89 11.7"/><polygon class="cls-66" points="18.89 11.31 22.86 5.35 23.12 5.35 18.89 11.7 18.89 11.31"/><polygon class="cls-67" points="18.89 10.92 22.61 5.35 22.86 5.35 18.89 11.31 18.89 10.92"/><polygon class="cls-68" points="18.89 10.53 22.35 5.35 22.61 5.35 18.89 10.92 18.89 10.53"/><polygon class="cls-69" points="18.89 10.14 22.09 5.35 22.35 5.35 18.89 10.53 18.89 10.14"/><polygon class="cls-70" points="22.09 5.35 18.89 10.14 18.89 5.35 22.09 5.35"/></g><path class="cls-2" d="M29.8,20.76h-7A14.53,14.53,0,0,0,8.28,35.24v2a10,10,0,0,0,10,10h16a10,10,0,0,0,10-10v-2A14.52,14.52,0,0,0,29.8,20.76Zm6,11.9H30a1.5,1.5,0,0,1,0-3H35.8a1.5,1.5,0,0,1,0,3Z"/><g class="cls-71"><polygon class="cls-72" points="36.85 32.66 37.3 31.99 37.3 32.66 36.85 32.66"/><polygon class="cls-73" points="36.2 32.66 37.3 31.01 37.3 31.99 36.85 32.66 36.2 32.66"/><polygon class="cls-74" points="35.55 32.66 37.3 30.04 37.3 31.01 36.2 32.66 35.55 32.66"/><polygon class="cls-75" points="34.9 32.66 36.9 29.66 37.3 29.66 37.3 30.04 35.55 32.66 34.9 32.66"/><polygon class="cls-76" points="34.25 32.66 36.25 29.66 36.9 29.66 34.9 32.66 34.25 32.66"/><polygon class="cls-77" points="33.6 32.66 35.6 29.66 36.25 29.66 34.25 32.66 33.6 32.66"/><polygon class="cls-78" points="32.95 32.66 34.95 29.66 35.6 29.66 33.6 32.66 32.95 32.66"/><polygon class="cls-79" points="32.3 32.66 34.3 29.66 34.95 29.66 32.95 32.66 32.3 32.66"/><polygon class="cls-80" points="31.65 32.66 33.65 29.66 34.3 29.66 32.3 32.66 31.65 32.66"/><polygon class="cls-81" points="31 32.66 33 29.66 33.65 29.66 31.65 32.66 31 32.66"/><polygon class="cls-82" points="30.35 32.66 32.35 29.66 33 29.66 31 32.66 30.35 32.66"/><polygon class="cls-83" points="29.7 32.66 31.7 29.66 32.35 29.66 30.35 32.66 29.7 32.66"/><polygon class="cls-84" points="29.05 32.66 31.05 29.66 31.7 29.66 29.7 32.66 29.05 32.66"/><polygon class="cls-85" points="28.48 32.55 30.4 29.66 31.05 29.66 29.05 32.66 28.48 32.66 28.48 32.55"/><polygon class="cls-86" points="28.48 31.57 29.75 29.66 30.4 29.66 28.48 32.55 28.48 31.57"/><polygon class="cls-87" points="28.48 30.6 29.1 29.66 29.75 29.66 28.48 31.57 28.48 30.6"/><polygon class="cls-88" points="29.1 29.66 28.48 30.6 28.48 29.66 29.1 29.66"/><polygon class="cls-89" points="39.48 47.24 44.28 40.04 44.28 47.24 39.48 47.24"/><polygon class="cls-90" points="38.83 47.24 44.28 39.06 44.28 40.04 39.48 47.24 38.83 47.24"/><polygon class="cls-91" points="38.18 47.24 44.28 38.09 44.28 39.06 38.83 47.24 38.18 47.24"/><polygon class="cls-92" points="37.53 47.24 44.28 37.12 44.28 38.09 38.18 47.24 37.53 47.24"/><polygon class="cls-93" points="36.88 47.24 44.28 36.14 44.28 37.12 37.53 47.24 36.88 47.24"/><polygon class="cls-94" points="36.23 47.24 44.28 35.17 44.28 36.14 36.88 47.24 36.23 47.24"/><polygon class="cls-95" points="35.58 47.24 44.28 34.19 44.28 35.17 36.23 47.24 35.58 47.24"/><polygon class="cls-96" points="34.93 47.24 44.28 33.22 44.28 34.19 35.58 47.24 34.93 47.24"/><polygon class="cls-97" points="34.28 47.24 44.28 32.24 44.28 33.22 34.93 47.24 34.28 47.24"/><polygon class="cls-98" points="33.63 47.24 44.28 31.27 44.28 32.24 34.28 47.24 33.63 47.24"/><polygon class="cls-99" points="32.98 47.24 44.28 30.29 44.28 31.27 33.63 47.24 32.98 47.24"/><polygon class="cls-100" points="32.33 47.24 44.28 29.32 44.28 30.29 32.98 47.24 32.33 47.24"/><polygon class="cls-101" points="31.68 47.24 44.28 28.34 44.28 29.32 32.33 47.24 31.68 47.24"/><polygon class="cls-102" points="31.03 47.24 44.28 27.37 44.28 28.34 31.68 47.24 31.03 47.24"/><polygon class="cls-103" points="30.38 47.24 44.28 26.39 44.28 27.37 31.03 47.24 30.38 47.24"/><polygon class="cls-104" points="29.73 47.24 44.28 25.42 44.28 26.39 30.38 47.24 29.73 47.24"/><polygon class="cls-105" points="29.08 47.24 44.28 24.44 44.28 25.42 29.73 47.24 29.08 47.24"/><polygon class="cls-106" points="28.43 47.24 44.28 23.47 44.28 24.44 29.08 47.24 28.43 47.24"/><polygon class="cls-107" points="27.78 47.24 44.19 22.64 44.28 22.7 44.28 23.47 28.43 47.24 27.78 47.24"/><polygon class="cls-108" points="27.13 47.24 43.74 22.34 44.19 22.64 27.78 47.24 27.13 47.24"/><polygon class="cls-109" points="26.48 47.24 43.29 22.04 43.74 22.34 27.13 47.24 26.48 47.24"/><polygon class="cls-110" points="25.83 47.24 42.84 21.74 43.29 22.04 26.48 47.24 25.83 47.24"/><polygon class="cls-111" points="25.18 47.24 42.39 21.44 42.84 21.74 25.83 47.24 25.18 47.24"/><polygon class="cls-112" points="24.53 47.24 41.94 21.14 42.39 21.44 25.18 47.24 24.53 47.24"/><polygon class="cls-113" points="23.88 47.24 41.49 20.84 41.94 21.14 24.53 47.24 23.88 47.24"/><polygon class="cls-114" points="23.23 47.24 40.89 20.76 41.37 20.76 41.49 20.84 23.88 47.24 23.23 47.24"/><polygon class="cls-115" points="22.58 47.24 40.24 20.76 40.89 20.76 23.23 47.24 22.58 47.24"/><polygon class="cls-116" points="21.93 47.24 39.59 20.76 40.24 20.76 22.58 47.24 21.93 47.24"/><polygon class="cls-117" points="21.28 47.24 38.94 20.76 39.59 20.76 21.93 47.24 21.28 47.24"/><polygon class="cls-118" points="20.63 47.24 38.29 20.76 38.94 20.76 21.28 47.24 20.63 47.24"/><polygon class="cls-119" points="19.98 47.24 37.64 20.76 38.29 20.76 20.63 47.24 19.98 47.24"/><polygon class="cls-120" points="19.33 47.24 36.99 20.76 37.64 20.76 19.98 47.24 19.33 47.24"/><polygon class="cls-121" points="18.68 47.24 36.34 20.76 36.99 20.76 19.33 47.24 18.68 47.24"/><polygon class="cls-122" points="18.03 47.24 35.69 20.76 36.34 20.76 18.68 47.24 18.03 47.24"/><polygon class="cls-123" points="17.38 47.24 35.04 20.76 35.69 20.76 18.03 47.24 17.38 47.24"/><polygon class="cls-124" points="16.73 47.24 34.39 20.76 35.04 20.76 17.38 47.24 16.73 47.24"/><polygon class="cls-125" points="16.08 47.24 33.74 20.76 34.39 20.76 16.73 47.24 16.08 47.24"/><polygon class="cls-126" points="15.43 47.24 33.09 20.76 33.74 20.76 16.08 47.24 15.43 47.24"/><polygon class="cls-127" points="14.78 47.24 32.44 20.76 33.09 20.76 15.43 47.24 14.78 47.24"/><polygon class="cls-128" points="14.13 47.24 31.79 20.76 32.44 20.76 14.78 47.24 14.13 47.24"/><polygon class="cls-129" points="13.48 47.24 31.14 20.76 31.79 20.76 14.13 47.24 13.48 47.24"/><polygon class="cls-130" points="12.83 47.24 30.49 20.76 31.14 20.76 13.48 47.24 12.83 47.24"/><polygon class="cls-131" points="12.18 47.24 29.84 20.76 30.49 20.76 12.83 47.24 12.18 47.24"/><polygon class="cls-132" points="11.53 47.24 29.19 20.76 29.84 20.76 12.18 47.24 11.53 47.24"/><polygon class="cls-133" points="10.88 47.24 28.54 20.76 29.19 20.76 11.53 47.24 10.88 47.24"/><polygon class="cls-134" points="10.23 47.24 27.89 20.76 28.54 20.76 10.88 47.24 10.23 47.24"/><polygon class="cls-135" points="9.58 47.24 27.24 20.76 27.89 20.76 10.23 47.24 9.58 47.24"/><polygon class="cls-136" points="9.18 47.24 9.01 47.13 26.59 20.76 27.24 20.76 9.58 47.24 9.18 47.24"/><polygon class="cls-137" points="9.01 47.13 8.56 46.83 25.94 20.76 26.59 20.76 9.01 47.13"/><polygon class="cls-138" points="8.56 46.83 8.28 46.64 8.28 46.26 25.29 20.76 25.94 20.76 8.56 46.83"/><polygon class="cls-139" points="8.28 45.29 24.64 20.76 25.29 20.76 8.28 46.26 8.28 45.29"/><polygon class="cls-140" points="8.28 44.31 23.99 20.76 24.64 20.76 8.28 45.29 8.28 44.31"/><polygon class="cls-141" points="8.28 43.34 23.34 20.76 23.99 20.76 8.28 44.31 8.28 43.34"/><polygon class="cls-142" points="8.28 42.37 22.69 20.76 23.34 20.76 8.28 43.34 8.28 42.37"/><polygon class="cls-143" points="8.28 41.39 22.04 20.76 22.69 20.76 8.28 42.37 8.28 41.39"/><polygon class="cls-144" points="8.28 40.42 21.39 20.76 22.04 20.76 8.28 41.39 8.28 40.42"/><polygon class="cls-145" points="8.28 39.44 20.74 20.76 21.39 20.76 8.28 40.42 8.28 39.44"/><polygon class="cls-146" points="8.28 38.47 20.09 20.76 20.74 20.76 8.28 39.44 8.28 38.47"/><polygon class="cls-147" points="8.28 37.49 19.44 20.76 20.09 20.76 8.28 38.47 8.28 37.49"/><polygon class="cls-148" points="8.28 36.52 18.79 20.76 19.44 20.76 8.28 37.49 8.28 36.52"/><polygon class="cls-149" points="8.28 35.54 18.14 20.76 18.79 20.76 8.28 36.52 8.28 35.54"/><polygon class="cls-150" points="8.28 34.57 17.49 20.76 18.14 20.76 8.28 35.54 8.28 34.57"/><polygon class="cls-151" points="8.28 33.59 16.84 20.76 17.49 20.76 8.28 34.57 8.28 33.59"/><polygon class="cls-152" points="8.28 32.62 16.19 20.76 16.84 20.76 8.28 33.59 8.28 32.62"/><polygon class="cls-153" points="8.28 31.64 15.54 20.76 16.19 20.76 8.28 32.62 8.28 31.64"/><polygon class="cls-154" points="8.28 30.67 14.89 20.76 15.54 20.76 8.28 31.64 8.28 30.67"/><polygon class="cls-155" points="14.89 20.76 8.28 30.67 8.28 20.76 14.89 20.76"/></g></svg>