<svg id="图层_1" data-name="图层 1" xmlns="http://www.w3.org/2000/svg" xmlns:xlink="http://www.w3.org/1999/xlink" viewBox="0 0 52 52"><defs><style>.cls-1{fill:url(#未命名的渐变_17);}.cls-2{fill:url(#未命名的渐变_17-2);}.cls-3{clip-path:url(#clip-path);}.cls-4{fill:url(#未命名的渐变_17-4);}.cls-5{fill:url(#未命名的渐变_17-5);}.cls-6{fill:url(#未命名的渐变_17-6);}.cls-7{fill:url(#未命名的渐变_17-7);}.cls-8{fill:url(#未命名的渐变_17-8);}.cls-9{fill:url(#未命名的渐变_17-9);}.cls-10{fill:url(#未命名的渐变_17-10);}.cls-11{fill:url(#未命名的渐变_17-11);}.cls-12{fill:url(#未命名的渐变_17-12);}.cls-13{fill:url(#未命名的渐变_17-13);}.cls-14{fill:url(#未命名的渐变_17-14);}.cls-15{fill:url(#未命名的渐变_17-15);}.cls-16{fill:url(#未命名的渐变_17-16);}.cls-17{fill:url(#未命名的渐变_17-17);}.cls-18{fill:url(#未命名的渐变_17-18);}.cls-19{fill:url(#未命名的渐变_17-19);}.cls-20{fill:url(#未命名的渐变_17-20);}.cls-21{fill:url(#未命名的渐变_17-21);}.cls-22{fill:url(#未命名的渐变_17-22);}.cls-23{fill:url(#未命名的渐变_17-23);}.cls-24{fill:url(#未命名的渐变_17-24);}.cls-25{fill:url(#未命名的渐变_17-25);}.cls-26{fill:url(#未命名的渐变_17-26);}.cls-27{fill:url(#未命名的渐变_17-27);}.cls-28{fill:url(#未命名的渐变_17-28);}.cls-29{fill:url(#未命名的渐变_17-29);}.cls-30{fill:url(#未命名的渐变_17-30);}.cls-31{fill:url(#未命名的渐变_17-31);}.cls-32{fill:url(#未命名的渐变_17-32);}.cls-33{fill:url(#未命名的渐变_17-33);}.cls-34{fill:url(#未命名的渐变_17-34);}.cls-35{fill:url(#未命名的渐变_17-35);}.cls-36{fill:url(#未命名的渐变_17-36);}.cls-37{fill:url(#未命名的渐变_17-37);}.cls-38{fill:url(#未命名的渐变_17-38);}.cls-39{fill:url(#未命名的渐变_17-39);}.cls-40{fill:url(#未命名的渐变_17-40);}.cls-41{fill:url(#未命名的渐变_17-41);}.cls-42{fill:url(#未命名的渐变_17-42);}.cls-43{fill:url(#未命名的渐变_17-43);}.cls-44{fill:url(#未命名的渐变_17-44);}.cls-45{fill:url(#未命名的渐变_17-45);}.cls-46{fill:url(#未命名的渐变_17-46);}.cls-47{fill:url(#未命名的渐变_17-47);}.cls-48{fill:url(#未命名的渐变_17-48);}.cls-49{fill:url(#未命名的渐变_17-49);}.cls-50{fill:url(#未命名的渐变_17-50);}.cls-51{fill:url(#未命名的渐变_17-51);}.cls-52{fill:url(#未命名的渐变_17-52);}.cls-53{fill:url(#未命名的渐变_17-53);}.cls-54{fill:url(#未命名的渐变_17-54);}.cls-55{fill:url(#未命名的渐变_17-55);}.cls-56{fill:url(#未命名的渐变_17-56);}.cls-57{fill:url(#未命名的渐变_17-57);}.cls-58{fill:url(#未命名的渐变_17-58);}.cls-59{fill:url(#未命名的渐变_17-59);}.cls-60{fill:url(#未命名的渐变_17-60);}.cls-61{fill:url(#未命名的渐变_17-61);}.cls-62{fill:url(#未命名的渐变_17-62);}.cls-63{fill:url(#未命名的渐变_17-63);}.cls-64{fill:url(#未命名的渐变_17-64);}.cls-65{fill:url(#未命名的渐变_17-65);}.cls-66{fill:url(#未命名的渐变_17-66);}.cls-67{fill:url(#未命名的渐变_17-67);}.cls-68{fill:url(#未命名的渐变_17-68);}.cls-69{fill:url(#未命名的渐变_17-69);}.cls-70{fill:url(#未命名的渐变_17-70);}.cls-71{clip-path:url(#clip-path-2);}.cls-72{fill:url(#未命名的渐变_17-72);}.cls-73{fill:url(#未命名的渐变_17-73);}.cls-74{fill:url(#未命名的渐变_17-74);}.cls-75{fill:url(#未命名的渐变_17-75);}.cls-76{fill:url(#未命名的渐变_17-76);}.cls-77{fill:url(#未命名的渐变_17-77);}.cls-78{fill:url(#未命名的渐变_17-78);}.cls-79{fill:url(#未命名的渐变_17-79);}.cls-80{fill:url(#未命名的渐变_17-80);}.cls-81{fill:url(#未命名的渐变_17-81);}.cls-82{fill:url(#未命名的渐变_17-82);}.cls-83{fill:url(#未命名的渐变_17-83);}.cls-84{fill:url(#未命名的渐变_17-84);}.cls-85{fill:url(#未命名的渐变_17-85);}.cls-86{fill:url(#未命名的渐变_17-86);}.cls-87{fill:url(#未命名的渐变_17-87);}.cls-88{fill:url(#未命名的渐变_17-88);}.cls-89{fill:url(#未命名的渐变_17-89);}.cls-90{fill:url(#未命名的渐变_17-90);}.cls-91{fill:url(#未命名的渐变_17-91);}.cls-92{fill:url(#未命名的渐变_17-92);}.cls-93{fill:url(#未命名的渐变_17-93);}.cls-94{fill:url(#未命名的渐变_17-94);}.cls-95{fill:url(#未命名的渐变_17-95);}.cls-96{fill:url(#未命名的渐变_17-96);}.cls-97{fill:url(#未命名的渐变_17-97);}.cls-98{fill:url(#未命名的渐变_17-98);}.cls-99{fill:url(#未命名的渐变_17-99);}.cls-100{fill:url(#未命名的渐变_17-100);}.cls-101{fill:url(#未命名的渐变_17-101);}.cls-102{fill:url(#未命名的渐变_17-102);}.cls-103{fill:url(#未命名的渐变_17-103);}.cls-104{fill:url(#未命名的渐变_17-104);}.cls-105{fill:url(#未命名的渐变_17-105);}.cls-106{fill:url(#未命名的渐变_17-106);}.cls-107{fill:url(#未命名的渐变_17-107);}.cls-108{fill:url(#未命名的渐变_17-108);}.cls-109{fill:url(#未命名的渐变_17-109);}.cls-110{fill:url(#未命名的渐变_17-110);}.cls-111{fill:url(#未命名的渐变_17-111);}.cls-112{fill:url(#未命名的渐变_17-112);}.cls-113{fill:url(#未命名的渐变_17-113);}.cls-114{fill:url(#未命名的渐变_17-114);}.cls-115{fill:url(#未命名的渐变_17-115);}.cls-116{fill:url(#未命名的渐变_17-116);}.cls-117{fill:url(#未命名的渐变_17-117);}.cls-118{fill:url(#未命名的渐变_17-118);}.cls-119{fill:url(#未命名的渐变_17-119);}.cls-120{fill:url(#未命名的渐变_17-120);}.cls-121{fill:url(#未命名的渐变_17-121);}.cls-122{fill:url(#未命名的渐变_17-122);}.cls-123{fill:url(#未命名的渐变_17-123);}.cls-124{fill:url(#未命名的渐变_17-124);}.cls-125{fill:url(#未命名的渐变_17-125);}.cls-126{fill:url(#未命名的渐变_17-126);}.cls-127{fill:url(#未命名的渐变_17-127);}.cls-128{fill:url(#未命名的渐变_17-128);}.cls-129{fill:url(#未命名的渐变_17-129);}.cls-130{fill:url(#未命名的渐变_17-130);}.cls-131{fill:url(#未命名的渐变_17-131);}.cls-132{fill:url(#未命名的渐变_17-132);}.cls-133{fill:url(#未命名的渐变_17-133);}.cls-134{fill:url(#未命名的渐变_17-134);}.cls-135{fill:url(#未命名的渐变_17-135);}.cls-136{fill:url(#未命名的渐变_17-136);}.cls-137{fill:url(#未命名的渐变_17-137);}.cls-138{fill:url(#未命名的渐变_17-138);}.cls-139{fill:url(#未命名的渐变_17-139);}.cls-140{fill:url(#未命名的渐变_17-140);}.cls-141{fill:url(#未命名的渐变_17-141);}.cls-142{fill:url(#未命名的渐变_17-142);}.cls-143{fill:url(#未命名的渐变_17-143);}.cls-144{fill:url(#未命名的渐变_17-144);}.cls-145{fill:url(#未命名的渐变_17-145);}.cls-146{fill:url(#未命名的渐变_17-146);}.cls-147{fill:url(#未命名的渐变_17-147);}.cls-148{fill:url(#未命名的渐变_17-148);}.cls-149{fill:url(#未命名的渐变_17-149);}.cls-150{fill:url(#未命名的渐变_17-150);}.cls-151{fill:url(#未命名的渐变_17-151);}.cls-152{fill:url(#未命名的渐变_17-152);}.cls-153{fill:url(#未命名的渐变_17-153);}.cls-154{fill:url(#未命名的渐变_17-154);}.cls-155{fill:url(#未命名的渐变_17-155);}</style><linearGradient id="未命名的渐变_17" x1="18.61" y1="12.35" x2="32.61" y2="12.35" gradientUnits="userSpaceOnUse"><stop offset="0" stop-color="#86b4fc"/><stop offset="1" stop-color="#4885ff"/></linearGradient><linearGradient id="未命名的渐变_17-2" x1="8" y1="34" x2="44" y2="34" xlink:href="#未命名的渐变_17"/><clipPath id="clip-path"><circle class="cls-1" cx="25.61" cy="12.35" r="7"/></clipPath><linearGradient id="未命名的渐变_17-4" x1="29.3" y1="16.87" x2="32.61" y2="16.87" xlink:href="#未命名的渐变_17"/><linearGradient id="未命名的渐变_17-5" x1="29.04" y1="16.67" x2="32.61" y2="16.67" xlink:href="#未命名的渐变_17"/><linearGradient id="未命名的渐变_17-6" x1="28.78" y1="16.48" x2="32.61" y2="16.48" xlink:href="#未命名的渐变_17"/><linearGradient id="未命名的渐变_17-7" x1="28.52" y1="16.28" x2="32.61" y2="16.28" xlink:href="#未命名的渐变_17"/><linearGradient id="未命名的渐变_17-8" x1="28.26" y1="16.09" x2="32.61" y2="16.09" xlink:href="#未命名的渐变_17"/><linearGradient id="未命名的渐变_17-9" x1="28" y1="15.9" x2="32.61" y2="15.9" xlink:href="#未命名的渐变_17"/><linearGradient id="未命名的渐变_17-10" x1="27.75" y1="15.7" x2="32.61" y2="15.7" xlink:href="#未命名的渐变_17"/><linearGradient id="未命名的渐变_17-11" x1="27.49" y1="15.51" x2="32.61" y2="15.51" xlink:href="#未命名的渐变_17"/><linearGradient id="未命名的渐变_17-12" x1="27.23" y1="15.31" x2="32.61" y2="15.31" xlink:href="#未命名的渐变_17"/><linearGradient id="未命名的渐变_17-13" x1="26.97" y1="15.12" x2="32.61" y2="15.12" xlink:href="#未命名的渐变_17"/><linearGradient id="未命名的渐变_17-14" x1="26.71" y1="14.93" x2="32.61" y2="14.93" xlink:href="#未命名的渐变_17"/><linearGradient id="未命名的渐变_17-15" x1="26.45" y1="14.73" x2="32.61" y2="14.73" xlink:href="#未命名的渐变_17"/><linearGradient id="未命名的渐变_17-16" x1="26.19" y1="14.54" x2="32.61" y2="14.54" xlink:href="#未命名的渐变_17"/><linearGradient id="未命名的渐变_17-17" x1="25.93" y1="14.34" x2="32.61" y2="14.34" xlink:href="#未命名的渐变_17"/><linearGradient id="未命名的渐变_17-18" x1="25.67" y1="14.15" x2="32.61" y2="14.15" xlink:href="#未命名的渐变_17"/><linearGradient id="未命名的渐变_17-19" x1="25.42" y1="13.95" x2="32.61" y2="13.95" xlink:href="#未命名的渐变_17"/><linearGradient id="未命名的渐变_17-20" x1="25.16" y1="13.76" x2="32.61" y2="13.76" xlink:href="#未命名的渐变_17"/><linearGradient id="未命名的渐变_17-21" x1="24.9" y1="13.57" x2="32.61" y2="13.57" xlink:href="#未命名的渐变_17"/><linearGradient id="未命名的渐变_17-22" x1="24.64" y1="13.37" x2="32.61" y2="13.37" xlink:href="#未命名的渐变_17"/><linearGradient id="未命名的渐变_17-23" x1="24.38" y1="13.18" x2="32.61" y2="13.18" xlink:href="#未命名的渐变_17"/><linearGradient id="未命名的渐变_17-24" x1="24.12" y1="12.98" x2="32.61" y2="12.98" xlink:href="#未命名的渐变_17"/><linearGradient id="未命名的渐变_17-25" x1="23.86" y1="12.79" x2="32.61" y2="12.79" xlink:href="#未命名的渐变_17"/><linearGradient id="未命名的渐变_17-26" x1="23.6" y1="12.6" x2="32.61" y2="12.6" xlink:href="#未命名的渐变_17"/><linearGradient id="未命名的渐变_17-27" x1="23.34" y1="12.4" x2="32.61" y2="12.4" xlink:href="#未命名的渐变_17"/><linearGradient id="未命名的渐变_17-28" x1="23.09" y1="12.35" x2="32.61" y2="12.35" xlink:href="#未命名的渐变_17"/><linearGradient id="未命名的渐变_17-29" x1="22.83" y1="12.35" x2="32.42" y2="12.35" xlink:href="#未命名的渐变_17"/><linearGradient id="未命名的渐变_17-30" x1="22.57" y1="12.35" x2="32.16" y2="12.35" xlink:href="#未命名的渐变_17"/><linearGradient id="未命名的渐变_17-31" x1="22.31" y1="12.35" x2="31.9" y2="12.35" xlink:href="#未命名的渐变_17"/><linearGradient id="未命名的渐变_17-32" x1="22.05" y1="12.35" x2="31.64" y2="12.35" xlink:href="#未命名的渐变_17"/><linearGradient id="未命名的渐变_17-33" x1="21.79" y1="12.35" x2="31.39" y2="12.35" xlink:href="#未命名的渐变_17"/><linearGradient id="未命名的渐变_17-34" x1="21.53" y1="12.35" x2="31.13" y2="12.35" xlink:href="#未命名的渐变_17"/><linearGradient id="未命名的渐变_17-35" x1="21.27" y1="12.35" x2="30.87" y2="12.35" xlink:href="#未命名的渐变_17"/><linearGradient id="未命名的渐变_17-36" x1="21.01" y1="12.35" x2="30.61" y2="12.35" xlink:href="#未命名的渐变_17"/><linearGradient id="未命名的渐变_17-37" x1="20.76" y1="12.35" x2="30.35" y2="12.35" xlink:href="#未命名的渐变_17"/><linearGradient id="未命名的渐变_17-38" x1="20.5" y1="12.35" x2="30.09" y2="12.35" xlink:href="#未命名的渐变_17"/><linearGradient id="未命名的渐变_17-39" x1="20.24" y1="12.35" x2="29.83" y2="12.35" xlink:href="#未命名的渐变_17"/><linearGradient id="未命名的渐变_17-40" x1="19.98" y1="12.35" x2="29.57" y2="12.35" xlink:href="#未命名的渐变_17"/><linearGradient id="未命名的渐变_17-41" x1="19.72" y1="12.35" x2="29.31" y2="12.35" xlink:href="#未命名的渐变_17"/><linearGradient id="未命名的渐变_17-42" x1="19.46" y1="12.35" x2="29.06" y2="12.35" xlink:href="#未命名的渐变_17"/><linearGradient id="未命名的渐变_17-43" x1="19.2" y1="12.35" x2="28.8" y2="12.35" xlink:href="#未命名的渐变_17"/><linearGradient id="未命名的渐变_17-44" x1="18.94" y1="12.35" x2="28.54" y2="12.35" xlink:href="#未命名的渐变_17"/><linearGradient id="未命名的渐变_17-45" x1="18.68" y1="12.35" x2="28.28" y2="12.35" xlink:href="#未命名的渐变_17"/><linearGradient id="未命名的渐变_17-46" x1="18.61" y1="12.35" x2="28.02" y2="12.35" xlink:href="#未命名的渐变_17"/><linearGradient id="未命名的渐变_17-47" x1="18.61" y1="12.21" x2="27.76" y2="12.21" xlink:href="#未命名的渐变_17"/><linearGradient id="未命名的渐变_17-48" x1="18.61" y1="12.02" x2="27.5" y2="12.02" xlink:href="#未命名的渐变_17"/><linearGradient id="未命名的渐变_17-49" x1="18.61" y1="11.82" x2="27.24" y2="11.82" xlink:href="#未命名的渐变_17"/><linearGradient id="未命名的渐变_17-50" x1="18.61" y1="11.63" x2="26.98" y2="11.63" xlink:href="#未命名的渐变_17"/><linearGradient id="未命名的渐变_17-51" x1="18.61" y1="11.43" x2="26.73" y2="11.43" xlink:href="#未命名的渐变_17"/><linearGradient id="未命名的渐变_17-52" x1="18.61" y1="11.24" x2="26.47" y2="11.24" xlink:href="#未命名的渐变_17"/><linearGradient id="未命名的渐变_17-53" x1="18.61" y1="11.05" x2="26.21" y2="11.05" xlink:href="#未命名的渐变_17"/><linearGradient id="未命名的渐变_17-54" x1="18.61" y1="10.85" x2="25.95" y2="10.85" xlink:href="#未命名的渐变_17"/><linearGradient id="未命名的渐变_17-55" x1="18.61" y1="10.66" x2="25.69" y2="10.66" xlink:href="#未命名的渐变_17"/><linearGradient id="未命名的渐变_17-56" x1="18.61" y1="10.46" x2="25.43" y2="10.46" xlink:href="#未命名的渐变_17"/><linearGradient id="未命名的渐变_17-57" x1="18.61" y1="10.27" x2="25.17" y2="10.27" xlink:href="#未命名的渐变_17"/><linearGradient id="未命名的渐变_17-58" x1="18.61" y1="10.07" x2="24.91" y2="10.07" xlink:href="#未命名的渐变_17"/><linearGradient id="未命名的渐变_17-59" x1="18.61" y1="9.88" x2="24.65" y2="9.88" xlink:href="#未命名的渐变_17"/><linearGradient id="未命名的渐变_17-60" x1="18.61" y1="9.69" x2="24.4" y2="9.69" xlink:href="#未命名的渐变_17"/><linearGradient id="未命名的渐变_17-61" x1="18.61" y1="9.49" x2="24.14" y2="9.49" xlink:href="#未命名的渐变_17"/><linearGradient id="未命名的渐变_17-62" x1="18.61" y1="9.3" x2="23.88" y2="9.3" xlink:href="#未命名的渐变_17"/><linearGradient id="未命名的渐变_17-63" x1="18.61" y1="9.1" x2="23.62" y2="9.1" xlink:href="#未命名的渐变_17"/><linearGradient id="未命名的渐变_17-64" x1="18.61" y1="8.91" x2="23.36" y2="8.91" xlink:href="#未命名的渐变_17"/><linearGradient id="未命名的渐变_17-65" x1="18.61" y1="8.72" x2="23.1" y2="8.72" xlink:href="#未命名的渐变_17"/><linearGradient id="未命名的渐变_17-66" x1="18.61" y1="8.52" x2="22.84" y2="8.52" xlink:href="#未命名的渐变_17"/><linearGradient id="未命名的渐变_17-67" x1="18.61" y1="8.33" x2="22.58" y2="8.33" xlink:href="#未命名的渐变_17"/><linearGradient id="未命名的渐变_17-68" x1="18.61" y1="8.13" x2="22.32" y2="8.13" xlink:href="#未命名的渐变_17"/><linearGradient id="未命名的渐变_17-69" x1="18.61" y1="7.94" x2="22.06" y2="7.94" xlink:href="#未命名的渐变_17"/><linearGradient id="未命名的渐变_17-70" x1="18.61" y1="7.75" x2="21.81" y2="7.75" xlink:href="#未命名的渐变_17"/><clipPath id="clip-path-2"><path class="cls-2" d="M29.52,20.76h-7A14.53,14.53,0,0,0,8,35.24v2a10,10,0,0,0,10,10H34a10,10,0,0,0,10-10v-2A14.53,14.53,0,0,0,29.52,20.76Zm6,11.9H29.7a1.5,1.5,0,0,1,0-3h5.82a1.5,1.5,0,0,1,0,3Z"/></clipPath><linearGradient id="未命名的渐变_17-72" x1="36.57" y1="32.32" x2="37.02" y2="32.32" xlink:href="#未命名的渐变_17"/><linearGradient id="未命名的渐变_17-73" x1="35.92" y1="31.84" x2="37.02" y2="31.84" xlink:href="#未命名的渐变_17"/><linearGradient id="未命名的渐变_17-74" x1="35.27" y1="31.35" x2="37.02" y2="31.35" xlink:href="#未命名的渐变_17"/><linearGradient id="未命名的渐变_17-75" x1="34.62" y1="31.16" x2="37.02" y2="31.16" xlink:href="#未命名的渐变_17"/><linearGradient id="未命名的渐变_17-76" x1="33.97" y1="31.16" x2="36.62" y2="31.16" xlink:href="#未命名的渐变_17"/><linearGradient id="未命名的渐变_17-77" x1="33.32" y1="31.16" x2="35.97" y2="31.16" xlink:href="#未命名的渐变_17"/><linearGradient id="未命名的渐变_17-78" x1="32.67" y1="31.16" x2="35.32" y2="31.16" xlink:href="#未命名的渐变_17"/><linearGradient id="未命名的渐变_17-79" x1="32.02" y1="31.16" x2="34.67" y2="31.16" xlink:href="#未命名的渐变_17"/><linearGradient id="未命名的渐变_17-80" x1="31.37" y1="31.16" x2="34.02" y2="31.16" xlink:href="#未命名的渐变_17"/><linearGradient id="未命名的渐变_17-81" x1="30.72" y1="31.16" x2="33.37" y2="31.16" xlink:href="#未命名的渐变_17"/><linearGradient id="未命名的渐变_17-82" x1="30.07" y1="31.16" x2="32.72" y2="31.16" xlink:href="#未命名的渐变_17"/><linearGradient id="未命名的渐变_17-83" x1="29.42" y1="31.16" x2="32.07" y2="31.16" xlink:href="#未命名的渐变_17"/><linearGradient id="未命名的渐变_17-84" x1="28.77" y1="31.16" x2="31.42" y2="31.16" xlink:href="#未命名的渐变_17"/><linearGradient id="未命名的渐变_17-85" x1="28.2" y1="31.16" x2="30.77" y2="31.16" xlink:href="#未命名的渐变_17"/><linearGradient id="未命名的渐变_17-86" x1="28.2" y1="31.1" x2="30.12" y2="31.1" xlink:href="#未命名的渐变_17"/><linearGradient id="未命名的渐变_17-87" x1="28.2" y1="30.62" x2="29.47" y2="30.62" xlink:href="#未命名的渐变_17"/><linearGradient id="未命名的渐变_17-88" x1="28.2" y1="30.13" x2="28.82" y2="30.13" xlink:href="#未命名的渐变_17"/><linearGradient id="未命名的渐变_17-89" x1="39.2" y1="43.64" x2="44" y2="43.64" xlink:href="#未命名的渐变_17"/><linearGradient id="未命名的渐变_17-90" x1="38.55" y1="43.15" x2="44" y2="43.15" xlink:href="#未命名的渐变_17"/><linearGradient id="未命名的渐变_17-91" x1="37.9" y1="42.66" x2="44" y2="42.66" xlink:href="#未命名的渐变_17"/><linearGradient id="未命名的渐变_17-92" x1="37.25" y1="42.18" x2="44" y2="42.18" xlink:href="#未命名的渐变_17"/><linearGradient id="未命名的渐变_17-93" x1="36.6" y1="41.69" x2="44" y2="41.69" xlink:href="#未命名的渐变_17"/><linearGradient id="未命名的渐变_17-94" x1="35.95" y1="41.2" x2="44" y2="41.2" xlink:href="#未命名的渐变_17"/><linearGradient id="未命名的渐变_17-95" x1="35.3" y1="40.72" x2="44" y2="40.72" xlink:href="#未命名的渐变_17"/><linearGradient id="未命名的渐变_17-96" x1="34.65" y1="40.23" x2="44" y2="40.23" xlink:href="#未命名的渐变_17"/><linearGradient id="未命名的渐变_17-97" x1="34" y1="39.74" x2="44" y2="39.74" xlink:href="#未命名的渐变_17"/><linearGradient id="未命名的渐变_17-98" x1="33.35" y1="39.25" x2="44" y2="39.25" xlink:href="#未命名的渐变_17"/><linearGradient id="未命名的渐变_17-99" x1="32.7" y1="38.77" x2="44" y2="38.77" xlink:href="#未命名的渐变_17"/><linearGradient id="未命名的渐变_17-100" x1="32.05" y1="38.28" x2="44" y2="38.28" xlink:href="#未命名的渐变_17"/><linearGradient id="未命名的渐变_17-101" x1="31.4" y1="37.79" x2="44" y2="37.79" xlink:href="#未命名的渐变_17"/><linearGradient id="未命名的渐变_17-102" x1="30.75" y1="37.3" x2="44" y2="37.3" xlink:href="#未命名的渐变_17"/><linearGradient id="未命名的渐变_17-103" x1="30.1" y1="36.82" x2="44" y2="36.82" xlink:href="#未命名的渐变_17"/><linearGradient id="未命名的渐变_17-104" x1="29.45" y1="36.33" x2="44" y2="36.33" xlink:href="#未命名的渐变_17"/><linearGradient id="未命名的渐变_17-105" x1="28.8" y1="35.84" x2="44" y2="35.84" xlink:href="#未命名的渐变_17"/><linearGradient id="未命名的渐变_17-106" x1="28.15" y1="35.35" x2="44" y2="35.35" xlink:href="#未命名的渐变_17"/><linearGradient id="未命名的渐变_17-107" x1="27.5" y1="34.94" x2="44" y2="34.94" xlink:href="#未命名的渐变_17"/><linearGradient id="未命名的渐变_17-108" x1="26.85" y1="34.79" x2="43.9" y2="34.79" xlink:href="#未命名的渐变_17"/><linearGradient id="未命名的渐变_17-109" x1="26.2" y1="34.64" x2="43.45" y2="34.64" xlink:href="#未命名的渐变_17"/><linearGradient id="未命名的渐变_17-110" x1="25.55" y1="34.49" x2="43" y2="34.49" xlink:href="#未命名的渐变_17"/><linearGradient id="未命名的渐变_17-111" x1="24.9" y1="34.34" x2="42.55" y2="34.34" xlink:href="#未命名的渐变_17"/><linearGradient id="未命名的渐变_17-112" x1="24.25" y1="34.19" x2="42.1" y2="34.19" xlink:href="#未命名的渐变_17"/><linearGradient id="未命名的渐变_17-113" x1="23.6" y1="34.04" x2="41.65" y2="34.04" xlink:href="#未命名的渐变_17"/><linearGradient id="未命名的渐变_17-114" x1="22.95" y1="34" x2="41.2" y2="34" xlink:href="#未命名的渐变_17"/><linearGradient id="未命名的渐变_17-115" x1="22.3" y1="34" x2="40.61" y2="34" xlink:href="#未命名的渐变_17"/><linearGradient id="未命名的渐变_17-116" x1="21.65" y1="34" x2="39.96" y2="34" xlink:href="#未命名的渐变_17"/><linearGradient id="未命名的渐变_17-117" x1="21" y1="34" x2="39.31" y2="34" xlink:href="#未命名的渐变_17"/><linearGradient id="未命名的渐变_17-118" x1="20.35" y1="34" x2="38.66" y2="34" xlink:href="#未命名的渐变_17"/><linearGradient id="未命名的渐变_17-119" x1="19.7" y1="34" x2="38.01" y2="34" xlink:href="#未命名的渐变_17"/><linearGradient id="未命名的渐变_17-120" x1="19.05" y1="34" x2="37.36" y2="34" xlink:href="#未命名的渐变_17"/><linearGradient id="未命名的渐变_17-121" x1="18.4" y1="34" x2="36.71" y2="34" xlink:href="#未命名的渐变_17"/><linearGradient id="未命名的渐变_17-122" x1="17.75" y1="34" x2="36.06" y2="34" xlink:href="#未命名的渐变_17"/><linearGradient id="未命名的渐变_17-123" x1="17.1" y1="34" x2="35.41" y2="34" xlink:href="#未命名的渐变_17"/><linearGradient id="未命名的渐变_17-124" x1="16.45" y1="34" x2="34.76" y2="34" xlink:href="#未命名的渐变_17"/><linearGradient id="未命名的渐变_17-125" x1="15.8" y1="34" x2="34.11" y2="34" xlink:href="#未命名的渐变_17"/><linearGradient id="未命名的渐变_17-126" x1="15.15" y1="34" x2="33.46" y2="34" xlink:href="#未命名的渐变_17"/><linearGradient id="未命名的渐变_17-127" x1="14.5" y1="34" x2="32.81" y2="34" xlink:href="#未命名的渐变_17"/><linearGradient id="未命名的渐变_17-128" x1="13.85" y1="34" x2="32.16" y2="34" xlink:href="#未命名的渐变_17"/><linearGradient id="未命名的渐变_17-129" x1="13.2" y1="34" x2="31.51" y2="34" xlink:href="#未命名的渐变_17"/><linearGradient id="未命名的渐变_17-130" x1="12.55" y1="34" x2="30.86" y2="34" xlink:href="#未命名的渐变_17"/><linearGradient id="未命名的渐变_17-131" x1="11.9" y1="34" x2="30.21" y2="34" xlink:href="#未命名的渐变_17"/><linearGradient id="未命名的渐变_17-132" x1="11.25" y1="34" x2="29.56" y2="34" xlink:href="#未命名的渐变_17"/><linearGradient id="未命名的渐变_17-133" x1="10.6" y1="34" x2="28.91" y2="34" xlink:href="#未命名的渐变_17"/><linearGradient id="未命名的渐变_17-134" x1="9.95" y1="34" x2="28.26" y2="34" xlink:href="#未命名的渐变_17"/><linearGradient id="未命名的渐变_17-135" x1="9.3" y1="34" x2="27.61" y2="34" xlink:href="#未命名的渐变_17"/><linearGradient id="未命名的渐变_17-136" x1="8.73" y1="34" x2="26.96" y2="34" xlink:href="#未命名的渐变_17"/><linearGradient id="未命名的渐变_17-137" x1="8.28" y1="33.94" x2="26.31" y2="33.94" xlink:href="#未命名的渐变_17"/><linearGradient id="未命名的渐变_17-138" x1="8" y1="33.79" x2="25.66" y2="33.79" xlink:href="#未命名的渐变_17"/><linearGradient id="未命名的渐变_17-139" x1="8" y1="33.51" x2="25.01" y2="33.51" xlink:href="#未命名的渐变_17"/><linearGradient id="未命名的渐变_17-140" x1="8" y1="33.03" x2="24.36" y2="33.03" xlink:href="#未命名的渐变_17"/><linearGradient id="未命名的渐变_17-141" x1="8" y1="32.54" x2="23.71" y2="32.54" xlink:href="#未命名的渐变_17"/><linearGradient id="未命名的渐变_17-142" x1="8" y1="32.05" x2="23.06" y2="32.05" xlink:href="#未命名的渐变_17"/><linearGradient id="未命名的渐变_17-143" x1="8" y1="31.56" x2="22.41" y2="31.56" xlink:href="#未命名的渐变_17"/><linearGradient id="未命名的渐变_17-144" x1="8" y1="31.08" x2="21.76" y2="31.08" xlink:href="#未命名的渐变_17"/><linearGradient id="未命名的渐变_17-145" x1="8" y1="30.59" x2="21.11" y2="30.59" xlink:href="#未命名的渐变_17"/><linearGradient id="未命名的渐变_17-146" x1="8" y1="30.1" x2="20.46" y2="30.1" xlink:href="#未命名的渐变_17"/><linearGradient id="未命名的渐变_17-147" x1="8" y1="29.61" x2="19.81" y2="29.61" xlink:href="#未命名的渐变_17"/><linearGradient id="未命名的渐变_17-148" x1="8" y1="29.13" x2="19.16" y2="29.13" xlink:href="#未命名的渐变_17"/><linearGradient id="未命名的渐变_17-149" x1="8" y1="28.64" x2="18.51" y2="28.64" xlink:href="#未命名的渐变_17"/><linearGradient id="未命名的渐变_17-150" x1="8" y1="28.15" x2="17.86" y2="28.15" xlink:href="#未命名的渐变_17"/><linearGradient id="未命名的渐变_17-151" x1="8" y1="27.66" x2="17.21" y2="27.66" xlink:href="#未命名的渐变_17"/><linearGradient id="未命名的渐变_17-152" x1="8" y1="27.18" x2="16.56" y2="27.18" xlink:href="#未命名的渐变_17"/><linearGradient id="未命名的渐变_17-153" x1="8" y1="26.69" x2="15.91" y2="26.69" xlink:href="#未命名的渐变_17"/><linearGradient id="未命名的渐变_17-154" x1="8" y1="26.2" x2="15.26" y2="26.2" xlink:href="#未命名的渐变_17"/><linearGradient id="未命名的渐变_17-155" x1="8" y1="25.71" x2="14.61" y2="25.71" xlink:href="#未命名的渐变_17"/></defs><title>图标</title><circle class="cls-1" cx="25.61" cy="12.35" r="7"/><g class="cls-3"><polygon class="cls-4" points="29.3 19.35 32.61 14.38 32.61 19.35 29.3 19.35"/><polygon class="cls-5" points="29.04 19.35 32.61 14 32.61 14.38 29.3 19.35 29.04 19.35"/><polygon class="cls-6" points="28.78 19.35 32.61 13.61 32.61 14 29.04 19.35 28.78 19.35"/><polygon class="cls-7" points="28.52 19.35 32.61 13.22 32.61 13.61 28.78 19.35 28.52 19.35"/><polygon class="cls-8" points="28.26 19.35 32.61 12.83 32.61 13.22 28.52 19.35 28.26 19.35"/><polygon class="cls-9" points="28 19.35 32.61 12.44 32.61 12.83 28.26 19.35 28 19.35"/><polygon class="cls-10" points="27.75 19.35 32.61 12.05 32.61 12.44 28 19.35 27.75 19.35"/><polygon class="cls-11" points="27.49 19.35 32.61 11.67 32.61 12.05 27.75 19.35 27.49 19.35"/><polygon class="cls-12" points="27.23 19.35 32.61 11.28 32.61 11.67 27.49 19.35 27.23 19.35"/><polygon class="cls-13" points="26.97 19.35 32.61 10.89 32.61 11.28 27.23 19.35 26.97 19.35"/><polygon class="cls-14" points="26.71 19.35 32.61 10.5 32.61 10.89 26.97 19.35 26.71 19.35"/><polygon class="cls-15" points="26.45 19.35 32.61 10.11 32.61 10.5 26.71 19.35 26.45 19.35"/><polygon class="cls-16" points="26.19 19.35 32.61 9.73 32.61 10.11 26.45 19.35 26.19 19.35"/><polygon class="cls-17" points="25.93 19.35 32.61 9.34 32.61 9.73 26.19 19.35 25.93 19.35"/><polygon class="cls-18" points="25.68 19.35 32.61 8.95 32.61 9.34 25.93 19.35 25.68 19.35"/><polygon class="cls-19" points="25.42 19.35 32.61 8.56 32.61 8.95 25.68 19.35 25.42 19.35"/><polygon class="cls-20" points="25.16 19.35 32.61 8.17 32.61 8.56 25.42 19.35 25.16 19.35"/><polygon class="cls-21" points="24.9 19.35 32.61 7.78 32.61 8.17 25.16 19.35 24.9 19.35"/><polygon class="cls-22" points="24.64 19.35 32.61 7.4 32.61 7.78 24.9 19.35 24.64 19.35"/><polygon class="cls-23" points="24.38 19.35 32.61 7.01 32.61 7.4 24.64 19.35 24.38 19.35"/><polygon class="cls-24" points="24.12 19.35 32.61 6.62 32.61 7.01 24.38 19.35 24.12 19.35"/><polygon class="cls-25" points="23.86 19.35 32.61 6.23 32.61 6.62 24.12 19.35 23.86 19.35"/><polygon class="cls-26" points="23.6 19.35 32.61 5.84 32.61 6.23 23.86 19.35 23.6 19.35"/><polygon class="cls-27" points="23.34 19.35 32.61 5.46 32.61 5.84 23.6 19.35 23.34 19.35"/><polygon class="cls-28" points="23.09 19.35 32.42 5.35 32.61 5.35 32.61 5.46 23.34 19.35 23.09 19.35"/><polygon class="cls-29" points="22.83 19.35 32.16 5.35 32.42 5.35 23.09 19.35 22.83 19.35"/><polygon class="cls-30" points="22.57 19.35 31.9 5.35 32.16 5.35 22.83 19.35 22.57 19.35"/><polygon class="cls-31" points="22.31 19.35 31.64 5.35 31.9 5.35 22.57 19.35 22.31 19.35"/><polygon class="cls-32" points="22.05 19.35 31.39 5.35 31.64 5.35 22.31 19.35 22.05 19.35"/><polygon class="cls-33" points="21.79 19.35 31.13 5.35 31.39 5.35 22.05 19.35 21.79 19.35"/><polygon class="cls-34" points="21.53 19.35 30.87 5.35 31.13 5.35 21.79 19.35 21.53 19.35"/><polygon class="cls-35" points="21.27 19.35 30.61 5.35 30.87 5.35 21.53 19.35 21.27 19.35"/><polygon class="cls-36" points="21.01 19.35 30.35 5.35 30.61 5.35 21.27 19.35 21.01 19.35"/><polygon class="cls-37" points="20.75 19.35 30.09 5.35 30.35 5.35 21.01 19.35 20.75 19.35"/><polygon class="cls-38" points="20.5 19.35 29.83 5.35 30.09 5.35 20.75 19.35 20.5 19.35"/><polygon class="cls-39" points="20.24 19.35 29.57 5.35 29.83 5.35 20.5 19.35 20.24 19.35"/><polygon class="cls-40" points="19.98 19.35 29.31 5.35 29.57 5.35 20.24 19.35 19.98 19.35"/><polygon class="cls-41" points="19.72 19.35 29.05 5.35 29.31 5.35 19.98 19.35 19.72 19.35"/><polygon class="cls-42" points="19.46 19.35 28.8 5.35 29.05 5.35 19.72 19.35 19.46 19.35"/><polygon class="cls-43" points="19.2 19.35 28.54 5.35 28.8 5.35 19.46 19.35 19.2 19.35"/><polygon class="cls-44" points="18.94 19.35 28.28 5.35 28.54 5.35 19.2 19.35 18.94 19.35"/><polygon class="cls-45" points="18.68 19.35 28.02 5.35 28.28 5.35 18.94 19.35 18.68 19.35"/><polygon class="cls-46" points="18.61 19.07 27.76 5.35 28.02 5.35 18.68 19.35 18.61 19.35 18.61 19.07"/><polygon class="cls-47" points="18.61 18.68 27.5 5.35 27.76 5.35 18.61 19.07 18.61 18.68"/><polygon class="cls-48" points="18.61 18.3 27.24 5.35 27.5 5.35 18.61 18.68 18.61 18.3"/><polygon class="cls-49" points="18.61 17.91 26.98 5.35 27.24 5.35 18.61 18.3 18.61 17.91"/><polygon class="cls-50" points="18.61 17.52 26.73 5.35 26.98 5.35 18.61 17.91 18.61 17.52"/><polygon class="cls-51" points="18.61 17.13 26.47 5.35 26.73 5.35 18.61 17.52 18.61 17.13"/><polygon class="cls-52" points="18.61 16.74 26.21 5.35 26.47 5.35 18.61 17.13 18.61 16.74"/><polygon class="cls-53" points="18.61 16.36 25.95 5.35 26.21 5.35 18.61 16.74 18.61 16.36"/><polygon class="cls-54" points="18.61 15.97 25.69 5.35 25.95 5.35 18.61 16.36 18.61 15.97"/><polygon class="cls-55" points="18.61 15.58 25.43 5.35 25.69 5.35 18.61 15.97 18.61 15.58"/><polygon class="cls-56" points="18.61 15.19 25.17 5.35 25.43 5.35 18.61 15.58 18.61 15.19"/><polygon class="cls-57" points="18.61 14.8 24.91 5.35 25.17 5.35 18.61 15.19 18.61 14.8"/><polygon class="cls-58" points="18.61 14.41 24.65 5.35 24.91 5.35 18.61 14.8 18.61 14.41"/><polygon class="cls-59" points="18.61 14.03 24.39 5.35 24.65 5.35 18.61 14.41 18.61 14.03"/><polygon class="cls-60" points="18.61 13.64 24.14 5.35 24.39 5.35 18.61 14.03 18.61 13.64"/><polygon class="cls-61" points="18.61 13.25 23.88 5.35 24.14 5.35 18.61 13.64 18.61 13.25"/><polygon class="cls-62" points="18.61 12.86 23.62 5.35 23.88 5.35 18.61 13.25 18.61 12.86"/><polygon class="cls-63" points="18.61 12.47 23.36 5.35 23.62 5.35 18.61 12.86 18.61 12.47"/><polygon class="cls-64" points="18.61 12.08 23.1 5.35 23.36 5.35 18.61 12.47 18.61 12.08"/><polygon class="cls-65" points="18.61 11.7 22.84 5.35 23.1 5.35 18.61 12.08 18.61 11.7"/><polygon class="cls-66" points="18.61 11.31 22.58 5.35 22.84 5.35 18.61 11.7 18.61 11.31"/><polygon class="cls-67" points="18.61 10.92 22.32 5.35 22.58 5.35 18.61 11.31 18.61 10.92"/><polygon class="cls-68" points="18.61 10.53 22.07 5.35 22.32 5.35 18.61 10.92 18.61 10.53"/><polygon class="cls-69" points="18.61 10.14 21.81 5.35 22.07 5.35 18.61 10.53 18.61 10.14"/><polygon class="cls-70" points="21.81 5.35 18.61 10.14 18.61 5.35 21.81 5.35"/></g><path class="cls-2" d="M29.52,20.76h-7A14.53,14.53,0,0,0,8,35.24v2a10,10,0,0,0,10,10H34a10,10,0,0,0,10-10v-2A14.53,14.53,0,0,0,29.52,20.76Zm6,11.9H29.7a1.5,1.5,0,0,1,0-3h5.82a1.5,1.5,0,0,1,0,3Z"/><g class="cls-71"><polygon class="cls-72" points="36.57 32.66 37.02 31.99 37.02 32.66 36.57 32.66"/><polygon class="cls-73" points="35.92 32.66 37.02 31.01 37.02 31.99 36.57 32.66 35.92 32.66"/><polygon class="cls-74" points="35.27 32.66 37.02 30.04 37.02 31.01 35.92 32.66 35.27 32.66"/><polygon class="cls-75" points="34.62 32.66 36.62 29.66 37.02 29.66 37.02 30.04 35.27 32.66 34.62 32.66"/><polygon class="cls-76" points="33.97 32.66 35.97 29.66 36.62 29.66 34.62 32.66 33.97 32.66"/><polygon class="cls-77" points="33.32 32.66 35.32 29.66 35.97 29.66 33.97 32.66 33.32 32.66"/><polygon class="cls-78" points="32.67 32.66 34.67 29.66 35.32 29.66 33.32 32.66 32.67 32.66"/><polygon class="cls-79" points="32.02 32.66 34.02 29.66 34.67 29.66 32.67 32.66 32.02 32.66"/><polygon class="cls-80" points="31.37 32.66 33.37 29.66 34.02 29.66 32.02 32.66 31.37 32.66"/><polygon class="cls-81" points="30.72 32.66 32.72 29.66 33.37 29.66 31.37 32.66 30.72 32.66"/><polygon class="cls-82" points="30.07 32.66 32.07 29.66 32.72 29.66 30.72 32.66 30.07 32.66"/><polygon class="cls-83" points="29.42 32.66 31.42 29.66 32.07 29.66 30.07 32.66 29.42 32.66"/><polygon class="cls-84" points="28.77 32.66 30.77 29.66 31.42 29.66 29.42 32.66 28.77 32.66"/><polygon class="cls-85" points="28.2 32.55 30.12 29.66 30.77 29.66 28.77 32.66 28.2 32.66 28.2 32.55"/><polygon class="cls-86" points="28.2 31.57 29.47 29.66 30.12 29.66 28.2 32.55 28.2 31.57"/><polygon class="cls-87" points="28.2 30.6 28.82 29.66 29.47 29.66 28.2 31.57 28.2 30.6"/><polygon class="cls-88" points="28.82 29.66 28.2 30.6 28.2 29.66 28.82 29.66"/><polygon class="cls-89" points="39.2 47.24 44 40.04 44 47.24 39.2 47.24"/><polygon class="cls-90" points="38.55 47.24 44 39.06 44 40.04 39.2 47.24 38.55 47.24"/><polygon class="cls-91" points="37.9 47.24 44 38.09 44 39.06 38.55 47.24 37.9 47.24"/><polygon class="cls-92" points="37.25 47.24 44 37.12 44 38.09 37.9 47.24 37.25 47.24"/><polygon class="cls-93" points="36.6 47.24 44 36.14 44 37.12 37.25 47.24 36.6 47.24"/><polygon class="cls-94" points="35.95 47.24 44 35.17 44 36.14 36.6 47.24 35.95 47.24"/><polygon class="cls-95" points="35.3 47.24 44 34.19 44 35.17 35.95 47.24 35.3 47.24"/><polygon class="cls-96" points="34.65 47.24 44 33.22 44 34.19 35.3 47.24 34.65 47.24"/><polygon class="cls-97" points="34 47.24 44 32.24 44 33.22 34.65 47.24 34 47.24"/><polygon class="cls-98" points="33.35 47.24 44 31.27 44 32.24 34 47.24 33.35 47.24"/><polygon class="cls-99" points="32.7 47.24 44 30.29 44 31.27 33.35 47.24 32.7 47.24"/><polygon class="cls-100" points="32.05 47.24 44 29.32 44 30.29 32.7 47.24 32.05 47.24"/><polygon class="cls-101" points="31.4 47.24 44 28.34 44 29.32 32.05 47.24 31.4 47.24"/><polygon class="cls-102" points="30.75 47.24 44 27.37 44 28.34 31.4 47.24 30.75 47.24"/><polygon class="cls-103" points="30.1 47.24 44 26.39 44 27.37 30.75 47.24 30.1 47.24"/><polygon class="cls-104" points="29.45 47.24 44 25.42 44 26.39 30.1 47.24 29.45 47.24"/><polygon class="cls-105" points="28.8 47.24 44 24.44 44 25.42 29.45 47.24 28.8 47.24"/><polygon class="cls-106" points="28.15 47.24 44 23.47 44 24.44 28.8 47.24 28.15 47.24"/><polygon class="cls-107" points="27.5 47.24 43.9 22.64 44 22.7 44 23.47 28.15 47.24 27.5 47.24"/><polygon class="cls-108" points="26.85 47.24 43.45 22.34 43.9 22.64 27.5 47.24 26.85 47.24"/><polygon class="cls-109" points="26.2 47.24 43 22.04 43.45 22.34 26.85 47.24 26.2 47.24"/><polygon class="cls-110" points="25.55 47.24 42.55 21.74 43 22.04 26.2 47.24 25.55 47.24"/><polygon class="cls-111" points="24.9 47.24 42.1 21.44 42.55 21.74 25.55 47.24 24.9 47.24"/><polygon class="cls-112" points="24.25 47.24 41.66 21.14 42.1 21.44 24.9 47.24 24.25 47.24"/><polygon class="cls-113" points="23.6 47.24 41.2 20.84 41.66 21.14 24.25 47.24 23.6 47.24"/><polygon class="cls-114" points="22.95 47.24 40.61 20.76 41.09 20.76 41.2 20.84 23.6 47.24 22.95 47.24"/><polygon class="cls-115" points="22.3 47.24 39.96 20.76 40.61 20.76 22.95 47.24 22.3 47.24"/><polygon class="cls-116" points="21.65 47.24 39.31 20.76 39.96 20.76 22.3 47.24 21.65 47.24"/><polygon class="cls-117" points="21 47.24 38.66 20.76 39.31 20.76 21.65 47.24 21 47.24"/><polygon class="cls-118" points="20.35 47.24 38.01 20.76 38.66 20.76 21 47.24 20.35 47.24"/><polygon class="cls-119" points="19.7 47.24 37.36 20.76 38.01 20.76 20.35 47.24 19.7 47.24"/><polygon class="cls-120" points="19.05 47.24 36.71 20.76 37.36 20.76 19.7 47.24 19.05 47.24"/><polygon class="cls-121" points="18.4 47.24 36.06 20.76 36.71 20.76 19.05 47.24 18.4 47.24"/><polygon class="cls-122" points="17.75 47.24 35.41 20.76 36.06 20.76 18.4 47.24 17.75 47.24"/><polygon class="cls-123" points="17.1 47.24 34.76 20.76 35.41 20.76 17.75 47.24 17.1 47.24"/><polygon class="cls-124" points="16.45 47.24 34.11 20.76 34.76 20.76 17.1 47.24 16.45 47.24"/><polygon class="cls-125" points="15.8 47.24 33.46 20.76 34.11 20.76 16.45 47.24 15.8 47.24"/><polygon class="cls-126" points="15.15 47.24 32.81 20.76 33.46 20.76 15.8 47.24 15.15 47.24"/><polygon class="cls-127" points="14.5 47.24 32.16 20.76 32.81 20.76 15.15 47.24 14.5 47.24"/><polygon class="cls-128" points="13.85 47.24 31.51 20.76 32.16 20.76 14.5 47.24 13.85 47.24"/><polygon class="cls-129" points="13.2 47.24 30.86 20.76 31.51 20.76 13.85 47.24 13.2 47.24"/><polygon class="cls-130" points="12.55 47.24 30.21 20.76 30.86 20.76 13.2 47.24 12.55 47.24"/><polygon class="cls-131" points="11.9 47.24 29.56 20.76 30.21 20.76 12.55 47.24 11.9 47.24"/><polygon class="cls-132" points="11.25 47.24 28.91 20.76 29.56 20.76 11.9 47.24 11.25 47.24"/><polygon class="cls-133" points="10.6 47.24 28.26 20.76 28.91 20.76 11.25 47.24 10.6 47.24"/><polygon class="cls-134" points="9.95 47.24 27.61 20.76 28.26 20.76 10.6 47.24 9.95 47.24"/><polygon class="cls-135" points="9.3 47.24 26.96 20.76 27.61 20.76 9.95 47.24 9.3 47.24"/><polygon class="cls-136" points="8.89 47.24 8.72 47.13 26.31 20.76 26.96 20.76 9.3 47.24 8.89 47.24"/><polygon class="cls-137" points="8.72 47.13 8.28 46.83 25.66 20.76 26.31 20.76 8.72 47.13"/><polygon class="cls-138" points="8.28 46.83 8 46.64 8 46.26 25.01 20.76 25.66 20.76 8.28 46.83"/><polygon class="cls-139" points="8 45.29 24.36 20.76 25.01 20.76 8 46.26 8 45.29"/><polygon class="cls-140" points="8 44.31 23.71 20.76 24.36 20.76 8 45.29 8 44.31"/><polygon class="cls-141" points="8 43.34 23.06 20.76 23.71 20.76 8 44.31 8 43.34"/><polygon class="cls-142" points="8 42.37 22.41 20.76 23.06 20.76 8 43.34 8 42.37"/><polygon class="cls-143" points="8 41.39 21.76 20.76 22.41 20.76 8 42.37 8 41.39"/><polygon class="cls-144" points="8 40.42 21.11 20.76 21.76 20.76 8 41.39 8 40.42"/><polygon class="cls-145" points="8 39.44 20.46 20.76 21.11 20.76 8 40.42 8 39.44"/><polygon class="cls-146" points="8 38.47 19.81 20.76 20.46 20.76 8 39.44 8 38.47"/><polygon class="cls-147" points="8 37.49 19.16 20.76 19.81 20.76 8 38.47 8 37.49"/><polygon class="cls-148" points="8 36.52 18.51 20.76 19.16 20.76 8 37.49 8 36.52"/><polygon class="cls-149" points="8 35.54 17.86 20.76 18.51 20.76 8 36.52 8 35.54"/><polygon class="cls-150" points="8 34.57 17.21 20.76 17.86 20.76 8 35.54 8 34.57"/><polygon class="cls-151" points="8 33.59 16.56 20.76 17.21 20.76 8 34.57 8 33.59"/><polygon class="cls-152" points="8 32.62 15.91 20.76 16.56 20.76 8 33.59 8 32.62"/><polygon class="cls-153" points="8 31.64 15.26 20.76 15.91 20.76 8 32.62 8 31.64"/><polygon class="cls-154" points="8 30.67 14.61 20.76 15.26 20.76 8 31.64 8 30.67"/><polygon class="cls-155" points="14.61 20.76 8 30.67 8 20.76 14.61 20.76"/></g></svg>